<svg width="24" height="24" viewBox="0 0 24 24" fill="none" xmlns="http://www.w3.org/2000/svg">
<path d="M15.1522 2.33984C15.7576 2.33984 16.2847 2.32791 16.7723 2.48632L16.9207 2.53906C17.2632 2.67055 17.579 2.8642 17.8524 3.11034L17.99 3.24413C18.2981 3.5696 18.525 3.98075 18.7899 4.43945L22.1619 10.2812C22.3715 10.6526 22.5448 10.9999 22.6248 11.376C22.7123 11.7872 22.7123 12.2128 22.6248 12.624C22.5448 13.0001 22.3715 13.3474 22.1619 13.7187L21.9422 14.1006L18.7899 19.5605C18.4874 20.0844 18.2334 20.5456 17.8524 20.8887C17.5789 21.135 17.2634 21.3294 16.9207 21.4609L16.7723 21.5137C16.4066 21.6325 16.0189 21.656 15.5926 21.6601H8.40704C7.98075 21.656 7.59298 21.6325 7.22735 21.5137C6.87744 21.4 6.55162 21.2232 6.26641 20.9922L6.14727 20.8896C5.76623 20.5466 5.51243 20.0847 5.20977 19.5605L2.05743 14.1006C1.75481 13.5764 1.48142 13.1254 1.37481 12.624C1.2874 12.2128 1.2874 11.7872 1.37481 11.376C1.48146 10.8746 1.75481 10.4245 2.05743 9.90038L5.20977 4.43945C5.51253 3.91505 5.76623 3.45343 6.14727 3.11034C6.45966 2.82907 6.82758 2.61624 7.22735 2.48632C7.715 2.32787 8.24188 2.33984 8.84747 2.33984H15.1522ZM8.84747 4.33984C8.10698 4.33984 7.96039 4.35134 7.84551 4.38866C7.71227 4.43197 7.58927 4.50293 7.48516 4.59667C7.39549 4.67748 7.31206 4.79884 6.94219 5.43945L3.78985 10.9004C3.41977 11.5414 3.35599 11.6739 3.33087 11.792C3.30174 11.929 3.30175 12.071 3.33087 12.208L3.36114 12.3066C3.40675 12.4238 3.51176 12.6189 3.78985 13.1006L6.94219 18.5605C7.31224 19.2014 7.39556 19.3226 7.48516 19.4033C7.58922 19.497 7.71243 19.5681 7.84551 19.6113C7.96037 19.6486 8.10698 19.6601 8.84747 19.6601H15.1522C15.8926 19.6601 16.0394 19.6486 16.1541 19.6113C16.2874 19.568 16.4105 19.497 16.5145 19.4033L16.5848 19.3281C16.6633 19.2302 16.7793 19.0422 17.0574 18.5605L20.2098 13.1006C20.5798 12.4597 20.6436 12.3262 20.6688 12.208C20.6979 12.0711 20.6979 11.9289 20.6688 11.792C20.6436 11.6738 20.5797 11.541 20.2098 10.9004L17.0574 5.43945C16.7799 4.95879 16.6633 4.77095 16.5848 4.67284L16.5145 4.59667C16.4105 4.50305 16.2874 4.43198 16.1541 4.38866C16.0394 4.3514 15.8924 4.33984 15.1522 4.33984H8.84747ZM12.0096 15C12.5618 15 13.0095 15.4478 13.0096 16C13.0096 16.5523 12.5619 17 12.0096 17H11.9998C11.4476 16.9999 10.9998 16.5522 10.9998 16C10.9999 15.4478 11.4476 15.0001 11.9998 15H12.0096ZM10.9998 13V7.99999C10.9999 7.44782 11.4476 7.00009 11.9998 6.99999C12.5521 6.99999 12.9998 7.44776 12.9998 7.99999V13C12.9998 13.5523 12.5521 14 11.9998 14C11.4476 13.9999 10.9998 13.5522 10.9998 13Z" fill="#2C2825"/>
</svg>
