<svg width="24" height="24" viewBox="0 0 24 24" fill="none" xmlns="http://www.w3.org/2000/svg">
<path d="M10 18C10 19.1045 10.8956 19.9998 12 20C13.1046 20 14 19.1046 14 18H10ZM17 8.59961C16.9999 7.40288 16.4914 6.23982 15.5606 5.37109C14.6274 4.50014 13.3475 4 12 4C10.6528 4.00007 9.37357 4.50033 8.44044 5.37109C7.50965 6.23984 7.00012 7.40289 7.00001 8.59961C7.00001 11.4629 6.27667 13.5419 5.38087 15.0078C5.13887 15.4038 4.93998 15.7304 4.78028 15.9971C5.01184 15.9986 5.28524 16 5.60645 16H18.3945C18.7153 16 18.9884 15.9986 19.2197 15.9971C19.0601 15.7304 18.861 15.4037 18.6191 15.0078C17.7234 13.5419 17 11.4626 17 8.59961ZM19 8.59961C19 10.9516 19.5531 12.6069 20.1963 13.7441L20.3262 13.9648C20.7077 14.5892 21.0072 15.0794 21.208 15.4326C21.3075 15.6077 21.3964 15.7735 21.4619 15.918C21.4945 15.9898 21.5312 16.0769 21.5596 16.1709C21.5821 16.2454 21.6298 16.4195 21.6113 16.6309C21.6 16.7609 21.5729 16.9972 21.4365 17.2402C21.3003 17.483 21.1135 17.6297 21.0088 17.707H21.0078C20.8542 17.8203 20.7012 17.8718 20.6191 17.8955C20.5254 17.9226 20.4342 17.9386 20.3594 17.9492C20.2103 17.9703 20.0389 17.9808 19.8633 17.9873C19.5091 18.0004 19.0146 18 18.3945 18H16C16 20.2092 14.2092 22 12 22C9.79108 21.9998 8.00001 20.2091 8.00001 18H5.60645C4.98648 18 4.4919 18.0004 4.1377 17.9873C3.96201 17.9808 3.78979 17.9703 3.64063 17.9492C3.5659 17.9387 3.47543 17.9226 3.38184 17.8955C3.2998 17.8718 3.14593 17.8205 2.99219 17.707C2.8874 17.6297 2.6998 17.4833 2.56348 17.2402C2.42715 16.9971 2.40004 16.7607 2.38868 16.6309C2.3702 16.4195 2.41893 16.2454 2.44141 16.1709C2.46973 16.0771 2.50557 15.9898 2.53809 15.918C2.60359 15.7734 2.69345 15.6077 2.79298 15.4326C2.99381 15.0794 3.29328 14.5891 3.67481 13.9648C4.37159 12.8245 5.00001 11.1084 5.00001 8.59961C5.00012 6.82623 5.75583 5.14066 7.0752 3.90918C8.39234 2.67986 10.165 2.00007 12 2C13.835 2 15.6076 2.67991 16.9248 3.90918C18.2444 5.14069 18.9999 6.8262 19 8.59961Z" fill="#2C2825"/>
</svg>
