<svg width="24" height="24" viewBox="0 0 24 24" fill="none" xmlns="http://www.w3.org/2000/svg">
<path d="M19 6.2002C19 5.62364 18.9987 5.25111 18.9756 4.96777C18.9534 4.69619 18.9158 4.59533 18.8906 4.5459C18.7949 4.35799 18.6421 4.20525 18.4541 4.10938C18.4047 4.0842 18.3039 4.04661 18.0322 4.02441C17.7489 4.00126 17.3764 4 16.7998 4H7.2002C6.62365 4 6.25112 4.00127 5.96778 4.02441C5.69619 4.04661 5.59534 4.08419 5.5459 4.10938C5.35793 4.20521 5.20521 4.35792 5.10938 4.5459C5.08419 4.59533 5.04662 4.69619 5.02442 4.96777C5.00127 5.25111 5 5.62364 5 6.2002V16.1738C5.31306 16.0631 5.649 16 6 16H19V6.2002ZM15 10C15.5523 10 16 10.4477 16 11C16 11.5523 15.5523 12 15 12H9C8.44772 12 8 11.5523 8 11C8 10.4477 8.44772 10 9 10H15ZM15 6C15.5523 6 16 6.44772 16 7C16 7.55229 15.5523 8 15 8H9C8.44772 8 8 7.55229 8 7C8 6.44772 8.44772 6 9 6H15ZM5 19C5 19.5523 5.44771 20 6 20H18V18H6C5.44771 18 5 18.4477 5 19ZM21 17C21 17.5523 20.5523 18 20 18V20C20.5523 20 21 20.4477 21 21C21 21.5523 20.5523 22 20 22H6C4.34316 22 3 20.6569 3 19V6.2002C3 5.65665 2.99893 5.18836 3.03028 4.80469C3.06259 4.40943 3.1344 4.016 3.32715 3.6377C3.61472 3.07347 4.07347 2.61472 4.6377 2.32715C5.016 2.13439 5.40943 2.06259 5.80469 2.03027C6.18836 1.99893 6.65665 2 7.2002 2H16.7998C17.3434 2 17.8116 1.99893 18.1953 2.03027C18.5906 2.06258 18.984 2.13438 19.3623 2.32715C19.9264 2.61468 20.3853 3.07338 20.6729 3.6377C20.8656 4.016 20.9374 4.40942 20.9697 4.80469C21.0011 5.18836 21 5.65665 21 6.2002V17Z" fill="#2C2825"/>
</svg>
