<svg width="24" height="24" viewBox="0 0 24 24" fill="none" xmlns="http://www.w3.org/2000/svg">
<path d="M20 11H4V17.7998C4 18.3764 4.00127 18.7489 4.02442 19.0322C4.04662 19.3038 4.0842 19.4047 4.10938 19.4541C4.20525 19.6421 4.35799 19.7949 4.5459 19.8906C4.59533 19.9158 4.6962 19.9534 4.96778 19.9756C5.25111 19.9987 5.62364 20 6.2002 20H17.7998C18.3764 20 18.7489 19.9987 19.0322 19.9756C19.3038 19.9534 19.4047 19.9158 19.4541 19.8906C19.6421 19.7948 19.7948 19.6421 19.8906 19.4541C19.9158 19.4047 19.9534 19.3038 19.9756 19.0322C19.9987 18.7489 20 18.3764 20 17.7998V11ZM20 8.2002C20 7.62364 19.9987 7.25111 19.9756 6.96777C19.9534 6.69619 19.9158 6.59533 19.8906 6.5459C19.7949 6.35799 19.6421 6.20525 19.4541 6.10938C19.4047 6.0842 19.3038 6.04661 19.0322 6.02441C18.7489 6.00126 18.3764 6 17.7998 6H6.2002C5.62365 6 5.25112 6.00126 4.96778 6.02441C4.69619 6.04661 4.59534 6.08419 4.5459 6.10938C4.35793 6.20521 4.20521 6.35792 4.10938 6.5459C4.08419 6.59533 4.04662 6.69619 4.02442 6.96777C4.00127 7.25111 4 7.62364 4 8.2002V9H20V8.2002ZM22 17.7998C22 18.3434 22.0011 18.8116 21.9697 19.1953C21.9374 19.5906 21.8656 19.984 21.6729 20.3623C21.3853 20.9265 20.9265 21.3853 20.3623 21.6729C19.984 21.8656 19.5906 21.9374 19.1953 21.9697C18.8116 22.0011 18.3434 22 17.7998 22H6.2002C5.65665 22 5.18837 22.0011 4.80469 21.9697C4.40943 21.9374 4.016 21.8656 3.6377 21.6729C3.07339 21.3853 2.61468 20.9264 2.32715 20.3623C2.13438 19.984 2.06259 19.5906 2.03028 19.1953C1.99893 18.8116 2 18.3434 2 17.7998V8.2002C2 7.65664 1.99893 7.18836 2.03028 6.80469C2.06259 6.40943 2.1344 6.01599 2.32715 5.6377C2.61472 5.07347 3.07347 4.61472 3.6377 4.32715C4.016 4.13439 4.40943 4.06258 4.80469 4.03027C5.14047 4.00284 5.54097 4.00126 6 4.00098V3C6 2.44772 6.44772 2 7 2C7.55229 2 8 2.44772 8 3V4H16V3C16 2.44772 16.4477 2 17 2C17.5523 2 18 2.44772 18 3V4.00098C18.459 4.00126 18.8595 4.00284 19.1953 4.03027C19.5906 4.06258 19.984 4.13438 20.3623 4.32715C20.9264 4.61468 21.3853 5.07338 21.6729 5.6377C21.8656 6.016 21.9374 6.40942 21.9697 6.80469C22.0011 7.18836 22 7.65664 22 8.2002V17.7998Z" fill="#2C2825"/>
</svg>
