<svg width="24" height="24" viewBox="0 0 24 24" fill="none" xmlns="http://www.w3.org/2000/svg">
<path d="M21 16C21 13.7909 19.2091 12 17 12C14.7909 12 13 13.7909 13 16C13 18.2091 14.7909 20 17 20C19.2091 20 21 18.2091 21 16ZM16 18V17H15C14.4477 17 14 16.5523 14 16C14 15.4477 14.4477 15 15 15H16V14C16 13.4477 16.4477 13 17 13C17.5523 13 18 13.4477 18 14V15H19C19.5523 15 20 15.4477 20 16C20 16.5523 19.5523 17 19 17H18V18C18 18.5523 17.5523 19 17 19C16.4477 19 16 18.5523 16 18ZM5.2002 6C4.62365 6 4.25112 6.00126 3.96778 6.02441C3.69619 6.04661 3.59534 6.08419 3.5459 6.10938C3.35793 6.20521 3.20521 6.35792 3.10938 6.5459C3.08419 6.59533 3.04662 6.69619 3.02442 6.96777C3.00406 7.21692 3.00142 7.5349 3.00098 8H15.999C15.9986 7.5349 15.9959 7.21692 15.9756 6.96777C15.9534 6.69619 15.9158 6.59533 15.8906 6.5459C15.7949 6.35799 15.6421 6.20525 15.4541 6.10938C15.4047 6.0842 15.3039 6.04661 15.0322 6.02441C14.7489 6.00126 14.3764 6 13.7998 6H5.2002ZM23 16C23 19.3137 20.3137 22 17 22C15.2234 22 13.6279 21.2271 12.5293 20H5.2002C4.65665 20 4.18837 20.0011 3.80469 19.9697C3.40943 19.9374 3.016 19.8656 2.6377 19.6729C2.07339 19.3853 1.61468 18.9264 1.32715 18.3623C1.13438 17.984 1.06259 17.5906 1.03028 17.1953C0.99893 16.8116 1 16.3434 1 15.7998V8.2002C1 7.65665 0.99893 7.18836 1.03028 6.80469C1.06259 6.40943 1.1344 6.01599 1.32715 5.6377C1.61472 5.07347 2.07347 4.61472 2.6377 4.32715C3.016 4.13439 3.40943 4.06258 3.80469 4.03027C3.86745 4.02515 3.93279 4.02211 4 4.01855V3C4 2.44772 4.44772 2 5 2C5.55229 2 6 2.44772 6 3V4H13V3C13 2.44772 13.4477 2 14 2C14.5523 2 15 2.44772 15 3V4.01855C15.0672 4.02211 15.1326 4.02515 15.1953 4.03027C15.5906 4.06258 15.984 4.13438 16.3623 4.32715C16.9264 4.61468 17.3853 5.07338 17.6729 5.6377C17.8656 6.016 17.9374 6.40942 17.9697 6.80469C18.0011 7.18836 18 7.65665 18 8.2002V10.084C20.8376 10.5601 23 13.0271 23 16ZM3 15.7998C3 16.3764 3.00127 16.7489 3.02442 17.0322C3.04662 17.3038 3.0842 17.4047 3.10938 17.4541C3.20525 17.6421 3.35799 17.7949 3.5459 17.8906C3.59533 17.9158 3.6962 17.9534 3.96778 17.9756C4.25111 17.9987 4.62365 18 5.2002 18H11.3428C11.1216 17.3743 11 16.7014 11 16C11 13.0271 13.1624 10.5601 16 10.084V10H3V15.7998Z" fill="#2C2825"/>
</svg>
