<svg width="24" height="24" viewBox="0 0 24 24" fill="none" xmlns="http://www.w3.org/2000/svg">
<path d="M14 13C14 11.8954 13.1046 11 12 11C10.8954 11 10 11.8954 10 13C10 14.1046 10.8954 15 12 15C13.1046 15 14 14.1046 14 13ZM16 13C16 15.2092 14.2092 17 12 17C9.79082 17 8 15.2092 8 13C8 10.7908 9.79082 9 12 9C14.2092 9 16 10.7908 16 13Z" fill="#2C2825"/>
<path d="M20 9.2002C20 8.62364 19.9987 8.25111 19.9756 7.96777C19.9534 7.69619 19.9158 7.59533 19.8906 7.5459C19.7949 7.35799 19.6421 7.20525 19.4541 7.10938C19.4047 7.0842 19.3038 7.04661 19.0322 7.02442C18.7489 7.00127 18.3764 7 17.7998 7H16.7451C16.6463 7 16.5174 7.0018 16.3906 6.98731C15.7988 6.91952 15.2676 6.59143 14.9424 6.09277C14.9074 6.03917 14.876 5.9832 14.8477 5.92969L14.7725 5.78027L14.6016 5.4541C14.439 5.20467 14.1737 5.0408 13.8779 5.00684C13.8348 5.0019 13.7795 5 13.5098 5H10.4902C10.2205 5 10.1652 5.0019 10.1221 5.00684C9.82625 5.0408 9.56102 5.20469 9.39844 5.4541C9.37473 5.49048 9.34822 5.53893 9.22754 5.78027C9.18342 5.86853 9.12729 5.98485 9.05762 6.0918C8.73234 6.59081 8.20118 6.91953 7.60938 6.98731C7.48256 7.00182 7.35346 7 7.25489 7H6.2002C5.62365 7 5.25112 7.00127 4.96778 7.02442C4.69619 7.04661 4.59534 7.08419 4.5459 7.10938C4.35793 7.20521 4.20521 7.35792 4.10938 7.5459C4.08419 7.59533 4.04662 7.69619 4.02442 7.96777C4.00127 8.25111 4 8.62365 4 9.2002V16.7998C4 17.3764 4.00127 17.7489 4.02442 18.0322C4.04662 18.3038 4.0842 18.4047 4.10938 18.4541C4.20525 18.6421 4.35799 18.7949 4.5459 18.8906C4.59533 18.9158 4.6962 18.9534 4.96778 18.9756C5.25111 18.9987 5.62365 19 6.2002 19H17.7998C18.3764 19 18.7489 18.9987 19.0322 18.9756C19.3038 18.9534 19.4047 18.9158 19.4541 18.8906C19.6421 18.7948 19.7948 18.6421 19.8906 18.4541C19.9158 18.4047 19.9534 18.3038 19.9756 18.0322C19.9987 17.7489 20 17.3764 20 16.7998V9.2002ZM22 16.7998C22 17.3434 22.0011 17.8116 21.9697 18.1953C21.9374 18.5906 21.8656 18.984 21.6729 19.3623C21.3853 19.9265 20.9265 20.3853 20.3623 20.6729C19.984 20.8656 19.5906 20.9374 19.1953 20.9697C18.8116 21.0011 18.3434 21 17.7998 21H6.2002C5.65665 21 5.18837 21.0011 4.80469 20.9697C4.40943 20.9374 4.016 20.8656 3.6377 20.6729C3.07339 20.3853 2.61468 19.9264 2.32715 19.3623C2.13438 18.984 2.06259 18.5906 2.03028 18.1953C1.99893 17.8116 2 17.3434 2 16.7998V9.2002C2 8.65665 1.99893 8.18836 2.03028 7.80469C2.06259 7.40943 2.1344 7.016 2.32715 6.6377C2.61472 6.07347 3.07347 5.61472 3.6377 5.32715C4.016 5.13439 4.40943 5.06259 4.80469 5.03027C5.18836 4.99893 5.65665 5 6.2002 5H7.25489C7.32032 5 7.35432 4.99955 7.37891 4.99902C7.39942 4.99858 7.39539 4.99845 7.38184 5C7.37445 5.01135 7.37328 5.01516 7.38282 4.99707C7.3943 4.97529 7.40917 4.94438 7.43848 4.88574C7.53757 4.68758 7.6217 4.51619 7.72266 4.36133C8.21057 3.61296 9.00697 3.12125 9.89454 3.01953C10.0781 2.99851 10.2688 3 10.4902 3H13.5098C13.7312 3 13.9219 2.99851 14.1055 3.01953C14.993 3.12125 15.7894 3.61297 16.2773 4.36133V4.36231C16.378 4.51681 16.4616 4.68788 16.5606 4.88574L16.5615 4.88672C16.5907 4.94517 16.6058 4.9755 16.6172 4.99707C16.6266 5.01484 16.6254 5.01119 16.6182 5C16.6048 4.99847 16.6006 4.99858 16.6211 4.99902C16.6457 4.99955 16.6797 5 16.7451 5H17.7998C18.3434 5 18.8116 4.99893 19.1953 5.03027C19.5906 5.06258 19.984 5.13438 20.3623 5.32715C20.9264 5.61468 21.3853 6.07338 21.6729 6.6377C21.8656 7.016 21.9374 7.40943 21.9697 7.80469C22.0011 8.18836 22 8.65665 22 9.2002V16.7998Z" fill="#2C2825"/>
</svg>
