<svg width="24" height="24" viewBox="0 0 24 24" fill="none" xmlns="http://www.w3.org/2000/svg">
<path d="M20.0039 12C20.0039 7.58173 16.4222 4.00001 12.0039 4C7.58563 4 4.00391 7.58172 4.00391 12C4.00391 13.2793 4.30315 14.4857 4.83496 15.5557C5.12714 16.1434 5.11268 16.863 5.05078 17.4219C4.98366 18.0277 4.83114 18.6732 4.66797 19.2451C4.59258 19.5094 4.51314 19.7645 4.43555 20H12.0039C16.4222 20 20.0039 16.4183 20.0039 12ZM22.0039 12C22.0039 17.5229 17.5268 22 12.0039 22H3.00488C2.67058 22 2.35833 21.8328 2.17285 21.5547C1.98738 21.2765 1.95252 20.9239 2.08105 20.6152L2.08203 20.6143C2.08253 20.6131 2.08294 20.6109 2.08398 20.6084C2.08637 20.6026 2.09067 20.5934 2.0957 20.5811C2.10583 20.5561 2.12122 20.5179 2.14062 20.4688C2.17954 20.3702 2.23476 20.2265 2.2998 20.0498C2.43061 19.6945 2.59718 19.2123 2.74414 18.6973C2.89271 18.1765 3.01375 17.6502 3.06348 17.2012C3.08822 16.9776 3.0929 16.794 3.08203 16.6523C3.07669 16.5829 3.06824 16.5307 3.05957 16.4941C3.05217 16.463 3.045 16.4487 3.04395 16.4463C2.37768 15.1059 2.00391 13.5951 2.00391 12C2.00391 6.47716 6.48106 2 12.0039 2C17.5268 2.00001 22.0039 6.47716 22.0039 12Z" fill="#2C2825"/>
</svg>
