<svg width="24" height="24" viewBox="0 0 24 24" fill="none" xmlns="http://www.w3.org/2000/svg">
<path d="M19 15.5C19 13.0147 16.9853 11 14.5 11C12.0147 11 10 13.0147 10 15.5C10 17.9853 12.0147 20 14.5 20H19.1289C18.8995 19.5511 18.6704 19.0144 18.4795 18.3896C18.3685 18.1269 18.3698 17.8188 18.5098 17.5449C18.8228 16.9324 19 16.2383 19 15.5ZM21 15.5C21 16.408 20.8113 17.2736 20.4736 18.0605C20.7203 18.7833 21.0206 19.3332 21.2646 19.708C21.4038 19.9217 21.5245 20.0778 21.6055 20.1758C21.6459 20.2247 21.6765 20.2598 21.6943 20.2793C21.6998 20.2853 21.7041 20.2898 21.707 20.293C21.993 20.579 22.0786 21.0091 21.9238 21.3828C21.769 21.7564 21.4044 22 21 22H14.5C12.1993 22 10.1796 20.8035 9.02441 19H3C2.57475 19 2.19581 18.7306 2.05566 18.3291C1.91589 17.928 2.04474 17.4824 2.37695 17.2178C2.37817 17.2168 2.38008 17.2154 2.38184 17.2139C2.39157 17.2056 2.40889 17.1905 2.43262 17.1689C2.48094 17.125 2.55464 17.0543 2.64258 16.96C2.81995 16.7697 3.04667 16.4909 3.24414 16.1396C3.63214 15.4493 3.90143 14.5026 3.48535 13.3359L3.48437 13.333C3.17071 12.4456 3 11.4917 3 10.5C3 5.80558 6.80558 2 11.5 2C16.1944 2 20 5.80557 20 10.5C20 10.9639 19.9605 11.4194 19.8887 11.8643C20.5902 12.902 21 14.1531 21 15.5ZM5 10.5C5 11.2605 5.12974 11.9885 5.36816 12.6641L5.47949 13.0068C5.95124 14.6349 5.5756 16.0156 5.05176 17H8.17578C8.06198 16.5184 8 16.0164 8 15.5C8 11.9101 10.9101 9 14.5 9C15.7805 9 16.9732 9.3724 17.9795 10.0117C17.7297 6.65002 14.9255 4 11.5 4C7.91014 4 5 6.91014 5 10.5Z" fill="#2C2825"/>
</svg>
