<svg width="24" height="24" viewBox="0 0 24 24" fill="none" xmlns="http://www.w3.org/2000/svg">
<path d="M3 16.8001V7.19952C3 6.65619 2.99894 6.18854 3.03028 5.80499C3.06258 5.40964 3.13436 5.01638 3.32715 4.63799C3.6147 4.0737 4.07345 3.61507 4.6377 3.32745C5.01599 3.13469 5.40944 3.06289 5.80469 3.03057C6.18836 2.99923 6.65665 3.0003 7.2002 3.0003H11C11.5523 3.0003 12 3.44801 12 4.0003C11.9998 4.55244 11.5522 5.0003 11 5.0003H7.2002C6.62365 5.0003 6.25112 5.00059 5.96778 5.02374C5.69619 5.04593 5.59535 5.08351 5.5459 5.1087C5.35773 5.20458 5.20524 5.35805 5.10938 5.5462C5.08418 5.59565 5.04661 5.69641 5.02442 5.96807C5.00129 6.25131 5 6.62337 5 7.19952V16.8001C5 17.3766 5.00127 17.7492 5.02442 18.0325C5.04662 18.3039 5.08421 18.405 5.10938 18.4544C5.20528 18.6424 5.35802 18.7952 5.5459 18.8909C5.59533 18.9161 5.69618 18.9537 5.96778 18.9759C6.25111 18.999 6.62365 19.0003 7.2002 19.0003H16.7998C17.3764 19.0003 17.7489 18.999 18.0322 18.9759C18.3039 18.9537 18.4047 18.9161 18.4541 18.8909C18.642 18.7952 18.7948 18.6423 18.8906 18.4544C18.9158 18.405 18.9534 18.3039 18.9756 18.0325C18.9987 17.7492 19 17.3766 19 16.8001V12.5003C19 11.948 19.4477 11.5003 20 11.5003C20.5523 11.5003 21 11.948 21 12.5003V16.8001C21 17.3434 21.001 17.8111 20.9697 18.1946C20.9374 18.5899 20.8656 18.9833 20.6729 19.3616C20.3853 19.9261 19.9267 20.3856 19.3623 20.6732C18.984 20.8659 18.5906 20.9367 18.1953 20.969C17.8116 21.0004 17.3434 21.0003 16.7998 21.0003H7.2002C6.65665 21.0003 6.18837 21.0004 5.80469 20.969C5.40945 20.9367 5.01599 20.8659 4.6377 20.6732C4.07323 20.3855 3.61469 19.9259 3.32715 19.3616C3.13444 18.9833 3.06257 18.5899 3.03028 18.1946C2.99897 17.8111 3 17.3434 3 16.8001ZM16.7041 2.88214C17.8756 1.71055 19.7748 1.71055 20.9463 2.88214C22.1179 4.05371 22.1179 5.95275 20.9463 7.12432L14.085 13.9866C13.3479 14.7238 12.8966 15.1794 12.374 15.5442C11.9247 15.858 11.4401 16.1181 10.9307 16.3187C10.3374 16.5522 9.7077 16.6758 8.68555 16.8821L8.19727 16.9798C7.87896 17.0439 7.54955 16.9498 7.31348 16.7269C7.07738 16.5039 6.96389 16.1802 7.00977 15.8587L7.05762 15.5267C7.22014 14.3891 7.31582 13.6888 7.5459 13.0276C7.74363 12.4595 8.01388 11.9191 8.34961 11.4202C8.74045 10.8395 9.24318 10.3431 10.0557 9.53057L16.7041 2.88214ZM11.4697 10.9446C10.6037 11.8106 10.2666 12.1535 10.0088 12.5364C9.76891 12.8929 9.57577 13.2792 9.43457 13.6849C9.33888 13.9598 9.27596 14.2506 9.19825 14.7317C9.66604 14.6305 9.93949 14.5588 10.1973 14.4573C10.5615 14.3139 10.9079 14.1285 11.2285 13.9046C11.5733 13.664 11.8843 13.3583 12.6699 12.5726L16.9141 8.32842L15.5 6.91436L11.4697 10.9446ZM19.5322 4.2962C19.1418 3.9057 18.5086 3.9057 18.1182 4.2962L16.9141 5.5003L18.3281 6.91436L19.5322 5.71026C19.9228 5.31974 19.9228 4.68672 19.5322 4.2962Z" fill="#2C2825"/>
</svg>
