<svg width="24" height="24" viewBox="0 0 24 24" fill="none" xmlns="http://www.w3.org/2000/svg">
<path d="M2.29199 2.29297C2.68251 1.90245 3.31553 1.90244 3.70605 2.29297L21.7061 20.293C22.0966 20.6835 22.0966 21.3165 21.7061 21.707C21.3155 22.0976 20.6825 22.0975 20.292 21.707L17.251 18.666C15.6895 19.516 13.8997 20 11.999 20C7.07226 19.9999 2.90434 16.7616 1.50293 12.2998C1.44166 12.1047 1.44166 11.8953 1.50293 11.7002C2.15565 9.6221 3.40857 7.81308 5.05566 6.4707L2.29199 3.70703C1.90147 3.31651 1.90147 2.68349 2.29199 2.29297ZM6.47754 7.89258C5.13072 8.94056 4.09061 10.3623 3.51172 12C4.74747 15.4964 8.08186 17.9999 11.999 18C13.3438 18 14.6182 17.7054 15.7627 17.1777L14.0303 15.4453C13.4349 15.7969 12.7403 16 11.999 16C9.78995 16 7.99902 14.2092 7.99902 12C7.99902 11.2586 8.20099 10.5633 8.55273 9.96777L6.47754 7.89258ZM11.999 4C16.9259 4 21.0937 7.23841 22.4951 11.7002C22.5564 11.8952 22.5564 12.1048 22.4951 12.2998C22.1861 13.284 21.7424 14.2082 21.1865 15.0508C20.8824 15.5115 20.2626 15.6388 19.8018 15.335C19.3408 15.0308 19.2134 14.4102 19.5176 13.9492C19.9156 13.346 20.2417 12.6921 20.4863 12C19.2506 8.50363 15.9163 6 11.999 6C11.6946 6.00001 11.3938 6.01552 11.0977 6.04492C10.5482 6.09937 10.0586 5.69783 10.0039 5.14844C9.94935 4.59885 10.3508 4.10925 10.9004 4.05469C11.262 4.01879 11.6286 4.00001 11.999 4ZM9.99902 12C9.99902 13.1046 10.8945 14 11.999 14C12.1778 14 12.35 13.9735 12.5146 13.9297L10.0684 11.4834C10.0244 11.6483 9.99902 11.821 9.99902 12Z" fill="#2C2825"/>
</svg>
