<svg width="24" height="24" viewBox="0 0 24 24" fill="none" xmlns="http://www.w3.org/2000/svg">
<path d="M14.0007 12C14.0007 10.8954 13.1053 10 12.0007 10C10.8962 10 10.0007 10.8954 10.0007 12C10.0007 13.1046 10.8962 14 12.0007 14C13.1053 14 14.0007 13.1046 14.0007 12ZM16.0007 12C16.0007 14.2092 14.2099 16 12.0007 16C9.79166 16 8.00073 14.2092 8.00073 12C8.00073 9.79081 9.79166 8 12.0007 8C14.2099 8.00002 16.0007 9.79083 16.0007 12Z" fill="#2C2825"/>
<path d="M12.001 4C16.9278 4 21.0956 7.23844 22.4971 11.7002C22.5583 11.8953 22.5583 12.1047 22.4971 12.2998C21.0956 16.7616 16.9278 20 12.001 20C7.07419 19.9999 2.90631 16.7616 1.50489 12.2998C1.44362 12.1047 1.44362 11.8953 1.50489 11.7002C2.90633 7.2384 7.07419 4.0001 12.001 4ZM12.001 6C8.0838 6.0001 4.74945 8.5036 3.51368 12C4.74943 15.4964 8.0838 17.9999 12.001 18C15.9182 18 19.2524 15.4964 20.4883 12C19.2524 8.50362 15.9181 6 12.001 6Z" fill="#2C2825"/>
</svg>
