<svg width="24" height="24" viewBox="0 0 24 24" fill="none" xmlns="http://www.w3.org/2000/svg">
<path d="M9.29297 9.29272C9.68345 8.90243 10.3166 8.90243 10.707 9.29272C11.0975 9.68319 11.0974 10.3162 10.707 10.7068L8.41504 12.9998H14C14.4043 12.9998 14.769 13.2435 14.9238 13.6169C15.0786 13.9905 14.9929 14.4208 14.707 14.7068L11.1133 18.3015C10.6283 18.7865 10.2748 19.1492 9.84766 19.4109C9.48979 19.6302 9.0994 19.7914 8.69141 19.8894C8.32604 19.9771 7.94978 19.9961 7.49512 19.9998H6.30273L3.55469 21.8318C3.15807 22.0962 2.63003 22.0438 2.29297 21.7068C1.95606 21.3697 1.9036 20.8416 2.16797 20.4451L4 17.697V16.988C4 16.3022 3.99351 15.7962 4.11035 15.3093C4.20831 14.9013 4.37052 14.511 4.58984 14.1531C4.75785 13.879 4.9678 13.6357 5.22461 13.3679C5.2545 13.3313 5.28756 13.2974 5.32227 13.2654C5.4386 13.1465 5.56437 13.0223 5.69922 12.8875L9.29297 9.29272ZM15.293 3.29272C16.7881 1.79783 19.2119 1.79783 20.707 3.29272C22.2021 4.78777 22.202 7.21168 20.707 8.70679L17.9141 11.4998L18.707 12.2927C19.0975 12.6832 19.0974 13.3162 18.707 13.7068C18.3165 14.0973 17.6835 14.0973 17.293 13.7068L10.293 6.70679C9.9026 6.31625 9.90249 5.6832 10.293 5.29272C10.6835 4.9024 11.3165 4.9024 11.707 5.29272L12.5 6.08569L15.293 3.29272ZM19.293 4.70679C18.5789 3.99294 17.4211 3.99294 16.707 4.70679L13.9141 7.49975L16.5 10.0857L19.293 7.29272C20.0069 6.57867 20.007 5.42078 19.293 4.70679ZM6 17.9998H7.01172C7.79309 17.9998 8.02121 17.9939 8.22461 17.9451C8.42861 17.896 8.62394 17.8154 8.80273 17.7058C8.98105 17.5966 9.1466 17.44 9.69922 16.8875L11.5859 14.9998H6.44238C6.37793 15.0759 6.33306 15.1358 6.29492 15.198C6.18534 15.3768 6.10466 15.572 6.05566 15.7761C6.00688 15.9794 6 16.207 6 16.988V17.9998Z" fill="#2C2825"/>
</svg>
