<svg width="24" height="24" viewBox="0 0 24 24" fill="none" xmlns="http://www.w3.org/2000/svg">
<path d="M14 12C14 10.8954 13.1046 10 12 10C10.8954 10 10 10.8954 10 12C10 13.1046 10.8954 14 12 14C13.1046 14 14 13.1046 14 12ZM16 12C16 14.2092 14.2092 16 12 16C9.79082 16 8 14.2092 8 12C8 9.79082 9.79082 8 12 8C14.2092 8 16 9.79082 16 12Z" fill="#2C2825"/>
<path d="M20 11.8662C20 11.299 19.9889 11.236 19.9766 11.1973C19.9557 11.1319 19.9213 11.0713 19.876 11.0195L19.8447 10.9902C19.7973 10.9519 19.6804 10.8742 19.3203 10.6582L19.042 10.4912C18.0125 9.87317 17.5833 8.59953 18.0293 7.48438L18.2031 7.0332C18.2308 6.95459 18.2354 6.93109 18.2373 6.91309C18.2452 6.83644 18.2355 6.75903 18.209 6.6875L18.1768 6.61816C18.1591 6.58639 18.1241 6.53808 17.7607 6.1748C17.4187 5.83279 17.3738 5.79952 17.3438 5.78223C17.2594 5.73374 17.1627 5.71114 17.0654 5.7168C17.0308 5.71886 16.975 5.72938 16.5176 5.88184L15.9473 6.07129C14.8098 6.45032 13.5742 5.87702 13.1289 4.76367C12.9327 4.27311 12.9007 4.22052 12.8779 4.19141C12.8134 4.10921 12.7243 4.04879 12.624 4.01953C12.5884 4.00921 12.5258 4 12 4C11.4742 4 11.4116 4.00921 11.376 4.01953C11.2757 4.04879 11.1866 4.10921 11.1221 4.19141C11.0993 4.22052 11.0673 4.2731 10.8711 4.76367C10.4258 5.877 9.19034 6.45028 8.05273 6.07129L7.48145 5.88184C7.02256 5.72888 6.96816 5.71881 6.93359 5.7168C6.8365 5.71118 6.73963 5.7347 6.65527 5.7832C6.62526 5.80052 6.57992 5.83414 6.23926 6.1748C5.87624 6.53782 5.84092 6.58646 5.82324 6.61816C5.77342 6.70776 5.75216 6.8111 5.7627 6.91309C5.76648 6.94921 5.78031 7.00839 5.9707 7.48438C6.41666 8.59957 5.9869 9.87414 4.95703 10.4922L4.67969 10.6582C4.19821 10.9471 4.15109 10.9888 4.12402 11.0195C4.07875 11.0711 4.04437 11.1317 4.02344 11.1973C4.01107 11.236 4 11.2992 4 11.8662C4 12.5384 4.01498 12.6154 4.03125 12.6592C4.05908 12.7338 4.10489 12.8007 4.16406 12.8545L4.20312 12.8828C4.26437 12.9194 4.41562 12.9891 4.87988 13.1748C5.92828 13.594 6.46827 14.7581 6.11133 15.8291L5.89551 16.4746C5.72706 16.9799 5.71802 17.0409 5.7168 17.0791C5.71408 17.1672 5.73461 17.2546 5.77637 17.332C5.79449 17.3657 5.82918 17.4151 6.20703 17.793C6.58445 18.1704 6.6342 18.2054 6.66797 18.2236C6.74548 18.2654 6.83234 18.2858 6.91992 18.2832C6.95829 18.282 7.02071 18.2727 7.52539 18.1045L8.05273 17.9287C9.1902 17.5498 10.4257 18.1229 10.8711 19.2363C11.0673 19.7268 11.0992 19.7794 11.1221 19.8086C11.1863 19.8904 11.2745 19.9501 11.374 19.9795C11.4097 19.9899 11.4715 20 12 20C12.2642 20 12.4114 19.9978 12.4971 19.9941L12.625 19.9795C12.7249 19.9502 12.8135 19.8907 12.8779 19.8086C12.9008 19.7794 12.9327 19.7268 13.1289 19.2363C13.5742 18.123 14.8098 17.5495 15.9473 17.9287L16.4746 18.1045C16.9812 18.2733 17.0407 18.282 17.0791 18.2832L17.1445 18.2812C17.21 18.2747 17.274 18.2549 17.332 18.2236C17.3658 18.2053 17.4172 18.1688 17.793 17.793C18.1703 17.4156 18.2054 17.3658 18.2236 17.332C18.2652 17.255 18.2858 17.168 18.2832 17.0801L18.2559 16.9531L18.1035 16.4746L17.8887 15.8301C17.5315 14.7588 18.0715 13.5941 19.1201 13.1748C19.7362 12.9283 19.801 12.8861 19.8359 12.8545C19.8951 12.8007 19.9409 12.7337 19.9688 12.6592C19.985 12.6154 20 12.5381 20 11.8662ZM22 12.25C21.9962 12.6329 21.9724 13.0107 21.8428 13.3584C21.7034 13.732 21.4764 14.067 21.1816 14.335C20.8157 14.6672 20.3329 14.844 19.8623 15.0322C19.7974 15.0584 19.7639 15.1307 19.7861 15.1973L20.001 15.8418C20.1139 16.1808 20.2347 16.5202 20.2715 16.8682L20.2822 17.0176C20.2957 17.4574 20.1925 17.8935 19.9834 18.2812C19.7931 18.6341 19.4958 18.9183 19.207 19.207C18.9183 19.4958 18.6342 19.794 18.2812 19.9844C17.8936 20.1935 17.4575 20.2967 17.0176 20.2832C16.6168 20.2708 16.2291 20.131 15.8418 20.002L15.3154 19.8262C15.1828 19.7821 15.0374 19.8485 14.9854 19.9785C14.8357 20.3526 14.6944 20.7327 14.4531 21.041L14.4521 21.042C14.1701 21.4019 13.7956 21.6767 13.3701 21.8379L13.1846 21.9004C12.9028 21.9825 12.6043 21.9976 12.3027 22H11.6973C11.446 21.998 11.1971 21.9866 10.958 21.9355L10.8154 21.9004C10.3136 21.7539 9.87022 21.4533 9.54785 21.042L9.54688 21.041C9.30558 20.7327 9.16426 20.3526 9.01465 19.9785C8.96258 19.8484 8.81767 19.7818 8.68457 19.8262L8.1582 20.001C7.81924 20.1139 7.47991 20.2357 7.13184 20.2725L6.98242 20.2822C6.54207 20.2959 6.10617 20.1933 5.71875 19.9844C5.45404 19.8416 5.22791 19.6383 5.00977 19.4238L4.57617 18.9902C4.39737 18.8084 4.2265 18.6209 4.0918 18.4102L4.01562 18.2812C3.80666 17.8937 3.70419 17.4577 3.71777 17.0176C3.73018 16.6167 3.86898 16.229 3.99805 15.8418L4.21387 15.1963C4.23574 15.13 4.20226 15.0583 4.1377 15.0322C3.66699 14.8439 3.18434 14.6674 2.81836 14.335C2.52349 14.0669 2.29661 13.732 2.15723 13.3584C2.02752 13.0106 2.00381 12.6329 2 12.25V11.541C2.0029 11.2161 2.02086 10.8936 2.11816 10.5889C2.22301 10.2606 2.3954 9.95713 2.62305 9.69824C2.90453 9.37829 3.28228 9.16421 3.65039 8.94336L3.92773 8.77734C4.11591 8.66441 4.19458 8.43133 4.11328 8.22754C3.96741 7.86286 3.81179 7.49885 3.77246 7.11816C3.71977 6.60793 3.82573 6.09372 4.0752 5.64551C4.26132 5.31111 4.54753 5.0384 4.8252 4.76074C5.08666 4.49927 5.34362 4.22976 5.6582 4.04883C6.08008 3.80626 6.56394 3.69245 7.0498 3.7207C7.41222 3.74181 7.76337 3.86741 8.11426 3.98438L8.68457 4.17383C8.81763 4.21816 8.96254 4.15168 9.01465 4.02148C9.16427 3.64737 9.30555 3.26731 9.54688 2.95898C9.86935 2.54729 10.3134 2.24609 10.8154 2.09961C11.0972 2.01742 11.3957 2.00244 11.6973 2H12.3027C12.6043 2.00244 12.9028 2.01742 13.1846 2.09961C13.6865 2.24608 14.1306 2.54634 14.4531 2.95801C14.6947 3.26643 14.8356 3.64715 14.9854 4.02148C15.0374 4.15159 15.1824 4.21816 15.3154 4.17383L15.8857 3.98438C16.2366 3.86744 16.5869 3.74186 16.9492 3.7207C17.4351 3.69241 17.9189 3.80626 18.3408 4.04883C18.6554 4.22975 18.9132 4.49919 19.1748 4.76074C19.4527 5.03859 19.7387 5.31126 19.9248 5.64551C20.1743 6.09378 20.2792 6.60807 20.2266 7.11816C20.1873 7.49877 20.0323 7.86242 19.8867 8.22656C19.8054 8.43015 19.8832 8.66336 20.0713 8.77637L20.626 9.10938C20.9008 9.27772 21.1658 9.45832 21.377 9.69824C21.6044 9.95698 21.777 10.2605 21.8818 10.5889C21.9791 10.8936 21.9971 11.2161 22 11.541V12.25Z" fill="#2C2825"/>
</svg>
