<svg width="24" height="24" viewBox="0 0 24 24" fill="none" xmlns="http://www.w3.org/2000/svg">
<path d="M4.29101 4.41431C6.74529 2.32394 9.87585 2.77791 11.999 4.59302C14.1171 2.7773 17.2055 2.34998 19.6865 4.40552C22.4061 6.65889 22.7331 10.5047 20.6387 13.1917C19.8478 14.2061 18.309 15.7245 16.8369 17.1096C15.3458 18.5127 13.8586 19.8389 13.125 20.4866H13.124C13.0542 20.5482 12.9589 20.6336 12.8672 20.7024C12.7635 20.7802 12.6114 20.879 12.4072 20.9397C12.1384 21.0195 11.8492 21.0197 11.5801 20.9397C11.376 20.879 11.2238 20.7802 11.1201 20.7024C11.0283 20.6335 10.9331 20.5483 10.8633 20.4866C10.1297 19.839 8.64169 18.5128 7.15038 17.1096C5.67837 15.7246 4.14042 14.206 3.3496 13.1917H3.34863C1.24539 10.4933 1.63389 6.67744 4.29101 4.41431ZM11.2412 6.65161C9.71546 4.87351 7.33008 4.45298 5.58788 5.93677C3.73607 7.51399 3.48938 10.1184 4.92675 11.9622C5.60795 12.8359 7.03308 14.2531 8.52148 15.6536C9.86959 16.922 11.2188 18.1288 11.9932 18.8147C12.7675 18.1289 14.1182 16.9225 15.4668 15.6536C16.9552 14.2531 18.3803 12.8359 19.0615 11.9622C20.5075 10.107 20.2768 7.49214 18.4101 5.94556C16.6197 4.46223 14.2773 4.88196 12.7588 6.65161C12.5688 6.8729 12.2916 7.00025 12 7.00025C11.7083 7.00025 11.4312 6.8729 11.2412 6.65161Z" fill="#2C2825"/>
</svg>
