<svg width="24" height="24" viewBox="0 0 24 24" fill="none" xmlns="http://www.w3.org/2000/svg">
<path d="M4.29102 4.41431C6.7451 2.32412 9.87585 2.77725 11.999 4.59204C14.1171 2.77664 17.2057 2.35014 19.6865 4.40552C22.4061 6.65887 22.7332 10.5047 20.6387 13.1917C19.8478 14.2061 18.309 15.7246 16.8369 17.1096C15.3458 18.5126 13.8586 19.8389 13.125 20.4866H13.124C13.0542 20.5482 12.9588 20.6336 12.8672 20.7024C12.7637 20.7801 12.6119 20.879 12.4082 20.9397L12.4072 20.9407C12.1719 21.0105 11.921 21.0187 11.6816 20.9661L11.5801 20.9397C11.3762 20.8789 11.2238 20.7802 11.1201 20.7024C11.0284 20.6335 10.9332 20.5483 10.8633 20.4866C10.1297 19.839 8.6417 18.5128 7.15039 17.1096C5.67838 15.7246 4.13945 14.2061 3.34863 13.1917C1.24538 10.4933 1.63389 6.67742 4.29102 4.41431ZM12.1475 19.0305L11.9932 19.5491L12.1475 19.0305ZM11.2412 6.65161C9.71551 4.87356 7.33012 4.45297 5.58789 5.93677C3.7939 7.46475 3.50623 9.95691 4.79687 11.7874L4.92676 11.9622L5.21582 12.3147C5.9653 13.1904 7.2193 14.4284 8.52148 15.6536C9.8696 16.922 11.2188 18.1288 11.9932 18.8147C12.7675 18.1289 14.1182 16.9225 15.4668 15.6536C16.9552 14.2532 18.3803 12.8359 19.0615 11.9622C20.5075 10.1071 20.2768 7.49215 18.4102 5.94556C16.863 4.66375 14.9036 4.80271 13.4199 6.0061L14.707 7.29321C14.9343 7.5205 15.0388 7.84314 14.9873 8.1604C14.9358 8.47766 14.7348 8.75103 14.4473 8.89478L11.6875 10.2737L13.707 12.2932C14.0975 12.6837 14.0975 13.3168 13.707 13.7073C13.3165 14.0977 12.6835 14.0977 12.293 13.7073L9.29297 10.7073C9.06572 10.48 8.96128 10.1573 9.0127 9.84009C9.06418 9.52282 9.26526 9.24947 9.55273 9.10571L12.3115 7.72583L11.293 6.70728C11.2751 6.68938 11.2577 6.67082 11.2412 6.65161Z" fill="#2C2825"/>
</svg>
