<svg width="24" height="24" viewBox="0 0 24 24" fill="none" xmlns="http://www.w3.org/2000/svg">
<path d="M11.3691 2.2246C11.7619 1.90425 12.3409 1.92685 12.707 2.29296L16.707 6.29296C17.0976 6.68349 17.0976 7.3165 16.707 7.70703C16.3165 8.09755 15.6835 8.09755 15.293 7.70703L13 5.41406V18.5859L15.293 16.293C15.6835 15.9024 16.3165 15.9024 16.707 16.293C17.0976 16.6835 17.0976 17.3165 16.707 17.707L12.707 21.707C12.3165 22.0975 11.6835 22.0975 11.293 21.707L7.29297 17.707C6.90245 17.3165 6.90245 16.6835 7.29297 16.293C7.68349 15.9024 8.31651 15.9024 8.70703 16.293L11 18.5859V5.41406L8.70703 7.70703C8.31651 8.09755 7.68349 8.09755 7.29297 7.70703C6.90245 7.3165 6.90245 6.68349 7.29297 6.29296L11.293 2.29296L11.3691 2.2246Z" fill="#2C2825"/>
</svg>
