<svg width="24" height="24" viewBox="0 0 24 24" fill="none" xmlns="http://www.w3.org/2000/svg">
<path d="M20 12.1299C20 10.9247 19.991 10.5131 19.8887 10.1475C19.7904 9.79627 19.629 9.46604 19.4121 9.17285V9.17187C19.1863 8.86667 18.8663 8.607 17.915 7.86718L15.3154 5.8457C13.8373 4.69602 13.3187 4.31664 12.7842 4.17187C12.2707 4.03285 11.7293 4.03285 11.2158 4.17187C10.6813 4.31664 10.1627 4.69602 8.68457 5.8457L6.08496 7.86718C5.13375 8.60701 4.81368 8.86668 4.58789 9.17187C4.37094 9.4652 4.20969 9.79614 4.11132 10.1475C4.00898 10.5131 4 10.9247 4 12.1299V14.5996C4 15.7361 4.0004 16.5287 4.05078 17.1455C4.10022 17.7507 4.19297 18.099 4.32715 18.3623C4.61475 18.9265 5.07352 19.3853 5.63769 19.6728C5.90107 19.807 6.24931 19.8998 6.85449 19.9492C7.47129 19.9996 8.26397 20 9.40039 20H14.5996C15.736 20 16.5287 19.9996 17.1455 19.9492C17.7507 19.8998 18.0989 19.807 18.3623 19.6728C18.9264 19.3853 19.3852 18.9265 19.6728 18.3623C19.807 18.099 19.8998 17.7507 19.9492 17.1455C19.9996 16.5287 20 15.7361 20 14.5996V12.1299ZM15 16C15.5523 16 16 16.4477 16 17C15.9999 17.5522 15.5522 18 15 18H9C8.44774 18 8.00005 17.5522 8 17C8 16.4477 8.44771 16 9 16H15ZM22 14.5996C22 15.7032 22.001 16.5914 21.9424 17.3086C21.8828 18.0373 21.7568 18.6773 21.4551 19.2695C20.9758 20.2101 20.2111 20.9757 19.2705 21.4551H19.2695C18.6773 21.7567 18.0373 21.8828 17.3086 21.9424C16.5914 22.001 15.7032 22 14.5996 22H9.40039C8.2968 22 7.40856 22.001 6.6914 21.9424C5.96269 21.8828 5.32266 21.7567 4.73047 21.4551C3.78962 20.9757 3.02427 20.2102 2.54492 19.2695C2.24324 18.6773 2.11715 18.0373 2.05761 17.3086C1.99902 16.5914 2 15.7032 2 14.5996V12.1299C2 11.0379 1.99181 10.3005 2.18554 9.60839C2.34948 9.02282 2.61889 8.47228 2.98047 7.98339C3.40785 7.40556 3.99459 6.95938 4.85644 6.28906L7.45703 4.2666C8.78924 3.23042 9.67615 2.51662 10.6934 2.24121C11.5491 2.00954 12.4509 2.00954 13.3066 2.24121C14.3238 2.51662 15.2108 3.23044 16.543 4.2666L19.1436 6.28906C20.0055 6.95942 20.5922 7.40555 21.0195 7.98339C21.3812 8.47231 21.6506 9.02286 21.8144 9.60839C22.0083 10.3006 22 11.038 22 12.1299V14.5996Z" fill="#2C2825"/>
</svg>
