<svg width="24" height="24" viewBox="0 0 24 24" fill="none" xmlns="http://www.w3.org/2000/svg">
<path d="M20 2C20.5523 2 21 2.44772 21 3C21 3.55228 20.5523 4 20 4H19.9424C19.6615 6.45001 18.3579 8.68739 16.3262 10.1387L13.7197 11.999L16.3262 13.8613C18.3579 15.3127 19.6615 17.55 19.9424 20H20C20.5523 20 21 20.4477 21 21C21 21.5523 20.5523 22 20 22H4C3.44772 22 3 21.5523 3 21C3 20.4477 3.44772 20 4 20H4.05762C4.33852 17.55 5.64204 15.3127 7.67383 13.8613L10.2793 11.999L7.67383 10.1387C5.64202 8.68739 4.33852 6.45001 4.05762 4H4C3.44772 4 3 3.55228 3 3C3 2.44772 3.44772 2 4 2H20ZM8.83594 15.4883C7.33069 16.5635 6.34612 18.1984 6.07715 20H17.9229C17.6539 18.1984 16.6693 16.5635 15.1641 15.4883L12 13.2275L8.83594 15.4883ZM6.07715 4C6.34609 5.80149 7.33091 7.43557 8.83594 8.51074L12 10.7705L15.1641 8.51074C16.6691 7.43557 17.6539 5.80149 17.9229 4H6.07715Z" fill="#2C2825"/>
</svg>
