<svg width="24" height="24" viewBox="0 0 24 24" fill="none" xmlns="http://www.w3.org/2000/svg">
<path d="M19 7.2002C19 6.62364 18.9987 6.25111 18.9756 5.96777C18.9534 5.69619 18.9158 5.59533 18.8906 5.5459C18.7949 5.35799 18.6421 5.20525 18.4541 5.10938C18.4047 5.0842 18.3039 5.04661 18.0322 5.02441C17.7489 5.00126 17.3764 5 16.7998 5H7.2002C6.62364 5 6.25111 5.00127 5.96778 5.02441C5.69619 5.04661 5.59534 5.08419 5.5459 5.10938C5.35793 5.20521 5.20521 5.35792 5.10938 5.5459C5.08419 5.59533 5.04662 5.69619 5.02442 5.96777C5.00127 6.25111 5.00001 6.62364 5.00001 7.2002V15.9297L7.3379 13.6211C7.71309 13.2326 8.0362 12.8976 8.32422 12.6445C8.62503 12.3803 8.95272 12.1448 9.3584 12.0068C9.96336 11.8012 10.6184 11.794 11.2275 11.9863C11.6363 12.1155 11.9698 12.3437 12.2764 12.6016C12.574 12.8519 12.9092 13.1858 13.2998 13.5732L14.2647 14.5303C14.5061 14.2937 14.7243 14.0855 14.9258 13.916C15.2327 13.6579 15.5663 13.4299 15.9756 13.3008L16.2061 13.2383C16.7486 13.1135 17.317 13.1417 17.8467 13.3223C18.2527 13.4608 18.5811 13.697 18.8818 13.9619C18.9208 13.9963 18.9597 14.033 19 14.0703V7.2002ZM10.1563 13.8613L10.002 13.9004C9.94915 13.9184 9.85058 13.9656 9.64356 14.1475C9.42747 14.3374 9.16476 14.608 8.75977 15.0273C8.75435 15.033 8.74872 15.0385 8.74317 15.0439L5.17774 18.5654C5.27171 18.7021 5.39701 18.8148 5.5459 18.8906C5.59533 18.9158 5.6962 18.9534 5.96778 18.9756C6.25111 18.9987 6.62364 19 7.2002 19H15.9072L13.5596 16.6475L11.8916 14.9932C11.4777 14.5827 11.2094 14.318 10.9893 14.1328C10.7779 13.955 10.678 13.9103 10.625 13.8936C10.4728 13.8455 10.3121 13.8348 10.1563 13.8613ZM17.2012 15.2148C16.9992 15.146 16.7803 15.1439 16.5772 15.208C16.524 15.2248 16.4242 15.2696 16.2129 15.4473C16.0663 15.5706 15.8985 15.7291 15.6807 15.9424L18.5586 18.8252C18.698 18.7309 18.8136 18.6052 18.8906 18.4541C18.9158 18.4047 18.9534 18.3038 18.9756 18.0322C18.9973 17.7663 18.9989 17.4221 18.999 16.9043L18.4541 16.3564C18.4504 16.3528 18.447 16.3485 18.4434 16.3447C18.0385 15.9243 17.7757 15.6533 17.5596 15.4629C17.3522 15.2802 17.2538 15.2328 17.2012 15.2148ZM16 9C16 8.44771 15.5523 8 15 8C14.4477 8 14 8.44771 14 9C14.0001 9.55228 14.4477 10 15 10C15.5523 10 15.9999 9.55228 16 9ZM18 9C17.9999 10.6568 16.6569 12 15 12C13.3432 12 12.0001 10.6568 12 9C12 7.34316 13.3431 6 15 6C16.6569 6 18 7.34316 18 9ZM21 16.7998C21 17.3434 21.0011 17.8116 20.9697 18.1953C20.9374 18.5906 20.8656 18.984 20.6729 19.3623C20.3853 19.9265 19.9265 20.3853 19.3623 20.6729C19.047 20.8336 18.7225 20.9095 18.3955 20.9492C17.9634 21.0018 17.4274 21 16.7998 21H7.2002C6.65665 21 6.18837 21.0011 5.80469 20.9697C5.40943 20.9374 5.01601 20.8656 4.6377 20.6729C4.07339 20.3853 3.61468 19.9264 3.32715 19.3623C3.16772 19.0494 3.09178 18.7273 3.05176 18.4023C2.99836 17.9687 3.00001 17.4304 3.00001 16.7998V7.2002C3.00001 6.65665 2.99893 6.18836 3.03028 5.80469C3.06259 5.40943 3.1344 5.016 3.32715 4.6377C3.61472 4.07347 4.07347 3.61472 4.6377 3.32715C5.016 3.13439 5.40943 3.06259 5.80469 3.03027C6.18836 2.99893 6.65665 3 7.2002 3H16.7998C17.3434 3 17.8116 2.99893 18.1953 3.03027C18.5906 3.06258 18.984 3.13438 19.3623 3.32715C19.9264 3.61468 20.3853 4.07338 20.6729 4.6377C20.8656 5.016 20.9374 5.40942 20.9697 5.80469C21.0011 6.18836 21 6.65665 21 7.2002V16.7998Z" fill="#2C2825"/>
</svg>
