<svg width="24" height="24" viewBox="0 0 24 24" fill="none" xmlns="http://www.w3.org/2000/svg">
<path d="M19 14.7998C19 13.9434 18.9997 13.3612 18.9629 12.9111C18.9271 12.4727 18.8619 12.2483 18.7822 12.0918C18.5905 11.7155 18.2845 11.4095 17.9082 11.2178C17.7518 11.1381 17.5273 11.0729 17.0889 11.0371C16.6388 11.0003 16.0566 11 15.2002 11H8.79981C8.04087 11 7.49451 11.0008 7.06055 11.0273C6.52279 11.0602 6.26679 11.1286 6.0918 11.2178C5.71551 11.4095 5.4095 11.7155 5.21778 12.0918C5.13806 12.2483 5.07293 12.4727 5.03711 12.9111C5.00035 13.3612 5 13.9434 5 14.7998V16.2002C5 17.0566 5.00035 17.6388 5.03711 18.0889C5.07293 18.5273 5.13806 18.7517 5.21778 18.9082C5.4095 19.2845 5.71551 19.5905 6.0918 19.7822C6.24819 19.8619 6.47272 19.9271 6.91113 19.9629C7.36117 19.9997 7.94341 20 8.79981 20H15.2002C16.0566 20 16.6388 19.9997 17.0889 19.9629C17.5273 19.9271 17.7518 19.8619 17.9082 19.7822C18.2845 19.5905 18.5905 19.2845 18.7822 18.9082C18.8619 18.7518 18.9271 18.5273 18.9629 18.0889C18.9997 17.6388 19 17.0566 19 16.2002V14.7998ZM21 16.2002C21 17.0237 21.001 17.7016 20.9561 18.252C20.9101 18.814 20.8117 19.3311 20.5645 19.8164C20.181 20.569 19.569 21.181 18.8164 21.5645C18.3311 21.8117 17.814 21.9101 17.252 21.9561C16.7016 22.001 16.0237 22 15.2002 22H8.79981C7.97632 22 7.29843 22.001 6.74805 21.9561C6.18599 21.9101 5.66891 21.8117 5.1836 21.5645C4.43109 21.181 3.81903 20.569 3.43555 19.8164C3.18829 19.3311 3.08988 18.814 3.04395 18.252C2.99898 17.7016 3 17.0237 3 16.2002V14.7998C3 13.9763 2.99898 13.2984 3.04395 12.748C3.08988 12.186 3.18829 11.6689 3.43555 11.1836C3.81903 10.431 4.43109 9.81899 5.1836 9.43555H5.18457C5.44587 9.30249 5.71703 9.21245 6 9.15039V8C6 4.6863 8.6863 2 12 2C14.4619 2 16.575 3.48271 17.5 5.59961C17.7211 6.10566 17.4904 6.69485 16.9844 6.91602C16.4783 7.13713 15.8891 6.90639 15.668 6.40039C15.0498 4.98556 13.6387 4 12 4C9.79087 4 8 5.79086 8 8V9.00293C8.24925 9.00122 8.51561 9 8.79981 9H15.2002C16.0237 9 16.7016 8.99897 17.252 9.04395C17.814 9.08988 18.3311 9.18827 18.8164 9.43555C19.569 9.819 20.181 10.431 20.5645 11.1836C20.8117 11.6689 20.9101 12.186 20.9561 12.748C21.001 13.2984 21 13.9763 21 14.7998V16.2002Z" fill="#2C2825"/>
</svg>
