<svg width="24" height="24" viewBox="0 0 24 24" fill="none" xmlns="http://www.w3.org/2000/svg">
<path d="M16.7041 2.88208C17.8757 1.71065 19.7747 1.71057 20.9463 2.88208L21.0527 2.99341C22.1169 4.17102 22.0812 5.98923 20.9463 7.12427L9.08496 18.9866C8.34773 19.7238 7.8966 20.1793 7.37402 20.5442C6.92494 20.8577 6.44033 21.118 5.93066 21.3186C5.33742 21.5522 4.70769 21.6749 3.68554 21.8811L3.19824 21.9797C2.87982 22.044 2.54967 21.9498 2.31347 21.7268C2.07737 21.5039 1.96397 21.1801 2.00976 20.8586L2.05761 20.5256C2.22008 19.3885 2.3159 18.6886 2.5459 18.0276C2.74358 17.4596 3.0138 16.9191 3.34961 16.4202C3.74049 15.8393 4.24296 15.3422 5.05566 14.5295L16.7031 2.88208H16.7041ZM6.46972 15.9446C5.60367 16.8106 5.26656 17.1534 5.00879 17.5364C4.76899 17.8926 4.57579 18.2791 4.43457 18.6848C4.3389 18.9598 4.27595 19.2505 4.19824 19.7317C4.66605 19.6305 4.93953 19.5587 5.19726 19.4573C5.56131 19.314 5.9077 19.1285 6.22851 18.9045C6.57331 18.6638 6.88402 18.3575 7.66992 17.5715L16.9131 8.32739L15.5 6.9143L6.46972 15.9446ZM19.5322 4.29614C19.1417 3.90564 18.5088 3.90575 18.1182 4.29614L16.9141 5.50024L18.3271 6.91333L19.5322 5.7102C19.9226 5.3197 19.9226 4.68664 19.5322 4.29614Z" fill="#2C2825"/>
</svg>
