<svg width="24" height="24" viewBox="0 0 24 24" fill="none" xmlns="http://www.w3.org/2000/svg">
<path d="M17.791 2.02832C18.5316 1.97727 19.181 2.00275 19.6465 2.04101C19.88 2.06021 20.0693 2.08328 20.2031 2.10156C20.27 2.1107 20.3233 2.1189 20.3613 2.125C20.3803 2.12804 20.3959 2.1299 20.4072 2.13183C20.4128 2.13278 20.4173 2.13412 20.4209 2.13476C20.4227 2.13509 20.4244 2.1355 20.4258 2.13574H20.4287L20.5166 2.15625C20.9463 2.2748 21.25 2.66709 21.25 3.12011H20.25L21.25 3.12109V3.14062C21.2499 3.15043 21.2494 3.16322 21.249 3.17871C21.2483 3.20959 21.2468 3.25157 21.2441 3.30371C21.2388 3.40836 21.2289 3.55471 21.209 3.73437C21.1692 4.09285 21.0901 4.59011 20.9336 5.16406C20.6217 6.30761 19.9903 7.79391 18.707 9.07715C17.3433 10.4409 15.5678 10.8582 14.2334 10.9609C13.7712 10.9965 13.3464 10.993 12.9873 10.9766C12.9296 11.9797 12.6477 13.0601 12.3906 13.874C12.2427 14.3425 12.0952 14.7486 11.9844 15.0381C11.9289 15.1829 11.8828 15.2995 11.8496 15.3809C11.833 15.4216 11.8199 15.4542 11.8105 15.4766C11.8059 15.4877 11.8015 15.4966 11.7988 15.5029C11.7976 15.5057 11.7967 15.508 11.7959 15.5098C11.7955 15.5107 11.7952 15.5121 11.7949 15.5127L11.7939 15.5137C11.5764 16.0212 10.989 16.2564 10.4814 16.0391C9.97382 15.8215 9.7385 15.2332 9.95605 14.7256C9.95632 14.725 9.9565 14.7239 9.95703 14.7227C9.95859 14.719 9.96135 14.7124 9.96484 14.7041C9.97194 14.6871 9.98293 14.6606 9.99707 14.626C10.0254 14.5565 10.0673 14.4535 10.1172 14.3232C10.2173 14.062 10.3511 13.6944 10.4844 13.2725C10.5682 13.0071 10.6471 12.7284 10.7188 12.4482C10.2906 12.4871 9.69383 12.513 9.0166 12.4609C7.68217 12.3582 5.90675 11.9409 4.54297 10.5771C3.25973 9.29391 2.62828 7.80761 2.31641 6.66406C2.15989 6.09011 2.08085 5.59285 2.04102 5.23437C2.02105 5.05471 2.01118 4.90836 2.00586 4.80371C2.00321 4.75157 2.00173 4.70959 2.00098 4.67871C2.0006 4.66322 2.00012 4.65043 2 4.64062V4.62109L3 4.62011L2.82227 3.63574H2.82422C2.82555 3.6355 2.82727 3.63509 2.8291 3.63476C2.83272 3.63412 2.83722 3.63278 2.84277 3.63183C2.85408 3.6299 2.86968 3.62804 2.88867 3.625C2.92672 3.6189 2.97999 3.6107 3.04688 3.60156C3.18066 3.58328 3.37001 3.56021 3.60352 3.54101C4.06905 3.50275 4.71837 3.47727 5.45898 3.52832C6.91766 3.62892 8.85463 4.03564 10.4004 5.36035C10.6972 5.61472 10.9545 5.8788 11.1768 6.14746C11.4891 5.37386 12.0102 4.57982 12.8496 3.86035C14.3954 2.53564 16.3323 2.12892 17.791 2.02832ZM4.10352 5.51269C4.13823 5.70092 4.18441 5.91148 4.24609 6.13769C4.49672 7.05664 4.99027 8.19632 5.95703 9.16308C6.84309 10.0491 8.06792 10.3819 9.1709 10.4668C9.6625 10.5046 10.1048 10.4893 10.4404 10.4629C10.4754 10.2329 10.4997 9.9489 10.4854 9.63379C10.4483 8.82038 10.1619 7.78947 9.09961 6.8789C8.02056 5.954 6.58211 5.61037 5.32227 5.52343C4.86531 5.49192 4.44755 5.49584 4.10352 5.51269ZM19.1455 4.01269C18.8017 3.99588 18.3843 3.99195 17.9277 4.02343C16.6679 4.11037 15.2294 4.454 14.1504 5.3789C13.0881 6.28947 12.8017 7.32038 12.7646 8.13379C12.7503 8.44884 12.7737 8.73297 12.8086 8.96289C13.1444 8.9893 13.587 9.00462 14.0791 8.96679C15.1821 8.88195 16.4069 8.5491 17.293 7.66308C18.2597 6.69632 18.7533 5.55664 19.0039 4.63769C19.0656 4.41155 19.1108 4.20087 19.1455 4.01269ZM3 4.62011H2C2 4.13683 2.3458 3.72219 2.82129 3.63574L3 4.62011Z" fill="#2C2825"/>
<path d="M15.75 14.12C16.2595 14.12 16.6878 14.5032 16.7441 15.0096L15.75 15.12C16.7438 15.0096 16.7441 15.0102 16.7441 15.0106V15.0135C16.7443 15.0155 16.7448 15.0186 16.7451 15.0214C16.7456 15.0267 16.7462 15.0336 16.747 15.0419C16.7487 15.0592 16.7514 15.0836 16.7539 15.1132C16.7588 15.1723 16.7642 15.2551 16.7695 15.3583C16.7802 15.5649 16.7889 15.8554 16.7793 16.202C16.7602 16.8891 16.6705 17.8292 16.3779 18.787C16.0857 19.7434 15.5733 20.7728 14.6699 21.5663C13.748 22.3757 12.4979 22.87 10.875 22.87C9.25199 22.87 8.00189 22.3757 7.08004 21.5663C6.17661 20.7728 5.66426 19.7434 5.37203 18.787C5.07938 17.8292 4.98975 16.8891 4.97066 16.202C4.96105 15.8554 4.96977 15.5649 4.98043 15.3583C4.98575 15.2551 4.99113 15.1723 4.99605 15.1132C4.99852 15.0836 5.0012 15.0592 5.00289 15.0419C5.0037 15.0336 5.00429 15.0267 5.00484 15.0214C5.00513 15.0186 5.00562 15.0155 5.00582 15.0135V15.0106C5.00587 15.0102 5.00611 15.0096 5.99996 15.12L5.00582 15.0096C5.06209 14.5032 5.49043 14.12 5.99996 14.12H15.75ZM6.97066 16.1473C6.98676 16.7258 7.06125 17.4735 7.28414 18.203C7.50749 18.9339 7.86268 19.5922 8.40035 20.0643C8.91989 20.5203 9.68578 20.87 10.875 20.87C12.0641 20.87 12.83 20.5203 13.3496 20.0643C13.8872 19.5922 14.2424 18.9339 14.4658 18.203C14.6887 17.4735 14.7632 16.7258 14.7793 16.1473C14.7795 16.1383 14.779 16.1289 14.7793 16.12H6.97066C6.97089 16.1289 6.97041 16.1383 6.97066 16.1473Z" fill="#2C2825"/>
</svg>
