<svg width="24" height="24" viewBox="0 0 24 24" fill="none" xmlns="http://www.w3.org/2000/svg">
<path d="M18 11C18 7.134 14.866 4 11 4C7.134 4 4 7.134 4 11C4 14.866 7.134 18 11 18C14.866 18 18 14.866 18 11ZM20 11C20 13.1182 19.2655 15.0632 18.041 16.6006L21.71 20.2959C22.0987 20.6879 22.0959 21.321 21.7041 21.71C21.3121 22.0987 20.679 22.0959 20.29 21.7041L16.6309 18.0186C15.089 19.2572 13.1317 20 11 20C6.02944 20 2 15.9706 2 11C2 6.02944 6.02944 2 11 2C15.9706 2 20 6.02944 20 11Z" fill="#2C2825"/>
</svg>
