<svg width="24" height="24" viewBox="0 0 24 24" fill="none" xmlns="http://www.w3.org/2000/svg">
<path d="M4.5459 3.31495C5.04965 3.23837 5.54801 3.37065 5.97364 3.51807C6.48554 3.69539 7.12563 3.9851 7.89551 4.33155L18.0469 8.89991C18.8002 9.23891 19.4284 9.5205 19.8926 9.78174C20.3354 10.031 20.8241 10.3624 21.0859 10.8921C21.4312 11.5904 21.4312 12.4096 21.0859 13.1079C20.8241 13.6377 20.3354 13.9691 19.8926 14.2183C19.4284 14.4795 18.8002 14.7611 18.0469 15.1001L7.91309 19.6606C7.14102 20.0081 6.49938 20.2983 5.98633 20.4761C5.55994 20.6238 5.06024 20.7561 4.55567 20.6792L4.33887 20.6333C3.58174 20.4219 2.96751 19.8669 2.68164 19.1343C2.464 18.5765 2.5554 17.9817 2.67481 17.48C2.80057 16.9517 3.02413 16.284 3.29297 15.481L4.29785 12.48C4.40416 12.1624 4.41166 12.1269 4.41504 12.1011C4.42056 12.0586 4.42047 12.0157 4.41504 11.9731C4.41173 11.9473 4.4043 11.912 4.29883 11.5942L3.27344 8.50245C3.00752 7.70127 2.78521 7.03562 2.66114 6.50831C2.54322 6.00716 2.45454 5.41357 2.67285 4.85694C2.95965 4.12576 3.57342 3.57138 4.33008 3.36084L4.5459 3.31495ZM4.85352 5.29248C4.71209 5.33591 4.59754 5.43937 4.54004 5.57569C4.53882 5.59569 4.52943 5.7188 4.60742 6.0503C4.70602 6.46934 4.89246 7.03367 5.1709 7.87256L6.19727 10.9644C6.20125 10.9764 6.20498 10.9885 6.20899 11.0005H11.5C12.0523 11.0005 12.5 11.4482 12.5 12.0005C12.4997 12.5526 12.0521 13.0005 11.5 13.0005H6.23145C6.21876 13.0385 6.20701 13.0769 6.19434 13.1147L5.18946 16.1157C4.908 16.9565 4.72014 17.5227 4.62012 17.9429C4.54237 18.2695 4.54943 18.3943 4.55078 18.4175C4.60818 18.555 4.72347 18.6582 4.86621 18.7017C4.89125 18.7006 5.01692 18.6953 5.33106 18.5864C5.73913 18.445 6.28339 18.2012 7.0918 17.8374L17.2266 13.2769C18.0161 12.9215 18.5452 12.6826 18.9121 12.4761C19.194 12.3174 19.279 12.2291 19.2959 12.2114C19.3591 12.0767 19.3593 11.9222 19.2959 11.7876C19.2779 11.7688 19.1914 11.6811 18.9121 11.5239C18.5452 11.3175 18.0161 11.0785 17.2266 10.7231L7.07422 6.15479C6.26843 5.79219 5.72607 5.54961 5.31934 5.4087C4.99472 5.29625 4.87189 5.29327 4.85352 5.29248Z" fill="#2C2825"/>
</svg>
