<svg width="24" height="24" viewBox="0 0 24 24" fill="none" xmlns="http://www.w3.org/2000/svg">
<path d="M11 21V20C11 19.4477 11.4477 19 12 19C12.5523 19 13 19.4477 13 20V21C13 21.5523 12.5523 22 12 22C11.4477 22 11 21.5523 11 21ZM5.6084 16.9814C5.99989 16.5919 6.63388 16.5929 7.02344 16.9844C7.41282 17.3758 7.41075 18.0089 7.01953 18.3984L6.20508 19.209C5.81358 19.5984 5.18052 19.5965 4.79102 19.2051C4.40171 18.8136 4.40352 18.1805 4.79492 17.791L5.6084 16.9814ZM16.9775 16.9844C17.3671 16.5933 18.0002 16.592 18.3916 16.9814L19.2051 17.791C19.5965 18.1805 19.5983 18.8136 19.209 19.2051C18.8195 19.5965 18.1864 19.5984 17.7949 19.209L16.9805 18.3984C16.5892 18.0089 16.5881 17.3758 16.9775 16.9844ZM15 12C15 10.3432 13.6568 9 12 9C10.3431 9 9 10.3431 9 12C9 13.6568 10.3432 15 12 15C13.6568 15 15 13.6568 15 12ZM4 11C4.55228 11 5 11.4477 5 12C5 12.5523 4.55228 13 4 13H3C2.44772 13 2 12.5523 2 12C2 11.4477 2.44772 11 3 11H4ZM21 11C21.5523 11 22 11.4477 22 12C22 12.5523 21.5523 13 21 13H20C19.4477 13 19 12.5523 19 12C19 11.4477 19.4477 11 20 11H21ZM4.79297 4.79297C5.18349 4.40244 5.81651 4.40244 6.20703 4.79297L7.02148 5.60742C7.41168 5.99797 7.4119 6.63107 7.02148 7.02148C6.63107 7.4119 5.99797 7.41168 5.60742 7.02148L4.79297 6.20703C4.40244 5.81651 4.40244 5.18349 4.79297 4.79297ZM17.793 4.79297C18.1835 4.40245 18.8165 4.40245 19.207 4.79297C19.5976 5.18349 19.5975 5.81651 19.207 6.20703L18.3926 7.02148C18.002 7.41166 17.3689 7.41189 16.9785 7.02148C16.5881 6.63107 16.5883 5.99797 16.9785 5.60742L17.793 4.79297ZM11 4V3C11 2.44772 11.4477 2 12 2C12.5523 2 13 2.44772 13 3V4C13 4.55228 12.5523 5 12 5C11.4477 5 11 4.55228 11 4ZM17 12C17 14.7614 14.7614 17 12 17C9.23857 17 7 14.7614 7 12C7 9.23857 9.23857 7 12 7C14.7614 7 17 9.23857 17 12Z" fill="#2C2825"/>
</svg>
