<svg width="24" height="24" viewBox="0 0 24 24" fill="none" xmlns="http://www.w3.org/2000/svg">
<path d="M5.29297 13.293C5.68349 12.9024 6.31651 12.9024 6.70703 13.293C7.09756 13.6835 7.09756 14.3165 6.70703 14.707L5.41406 16H17C17.5523 16 18 16.4477 18 17C18 17.5523 17.5523 18 17 18H5.41406L6.70703 19.293C7.09756 19.6835 7.09756 20.3165 6.70703 20.707C6.31651 21.0976 5.68349 21.0976 5.29297 20.707L2.29297 17.707C1.90245 17.3165 1.90245 16.6835 2.29297 16.293L5.29297 13.293ZM17.293 3.29297C17.6835 2.90245 18.3165 2.90245 18.707 3.29297L21.707 6.29297C22.0976 6.68349 22.0976 7.31651 21.707 7.70703L18.707 10.707C18.3165 11.0976 17.6835 11.0976 17.293 10.707C16.9024 10.3165 16.9024 9.68349 17.293 9.29297L18.5859 8H7C6.44772 8 6 7.55229 6 7C6 6.44772 6.44772 6 7 6H18.5859L17.293 4.70703C16.9024 4.31651 16.9024 3.68349 17.293 3.29297Z" fill="#2C2825"/>
</svg>
