<svg width="24" height="24" viewBox="0 0 24 24" fill="none" xmlns="http://www.w3.org/2000/svg">
<path d="M14 6C14 4.89542 13.1046 4 12 4C10.8954 4 10 4.89542 10 6V14.3535C10 14.5971 9.91116 14.8329 9.75 15.0156C9.28272 15.545 9 16.2385 9 17C9.00011 18.6568 10.3432 20 12 20C13.6568 20 14.9999 18.6568 15 17C15 16.2385 14.7173 15.545 14.25 15.0156C14.0888 14.8329 14 14.5971 14 14.3535V6ZM12.0088 9.5C12.5608 9.50093 13.0074 9.94897 13.0068 10.501L13 15.2695C13.5973 15.6155 14 16.2601 14 17C13.9999 18.1045 13.1045 19 12 19C10.8955 19 10.0001 18.1045 10 17C10 16.2599 10.4025 15.6144 11 15.2686L11.0068 10.499C11.0075 9.94674 11.4565 9.49929 12.0088 9.5ZM16 14C16.6273 14.8355 17 15.8753 17 17C16.9999 19.7614 14.7613 22 12 22C9.23865 22 7.00011 19.7614 7 17C7 15.8752 7.37271 14.8354 8 14V6C8 3.79088 9.7908 2 12 2C14.2092 2 16 3.79088 16 6V14Z" fill="#2C2825"/>
</svg>
