<svg width="24" height="24" viewBox="0 0 24 24" fill="none" xmlns="http://www.w3.org/2000/svg">
<path d="M17 7H7V16.2002C7 17.0566 7.00035 17.6388 7.03711 18.0889C7.07293 18.5273 7.13806 18.7517 7.21777 18.9082C7.4095 19.2845 7.71551 19.5905 8.0918 19.7822C8.24819 19.8619 8.47272 19.9271 8.91113 19.9629C9.36117 19.9996 9.94341 20 10.7998 20H13.2002C14.0566 20 14.6388 19.9996 15.0889 19.9629C15.5273 19.9271 15.7517 19.8619 15.9082 19.7822C16.2845 19.5905 16.5905 19.2845 16.7822 18.9082C16.8619 18.7517 16.9271 18.5273 16.9629 18.0889C16.9997 17.6388 17 17.0566 17 16.2002V7ZM9 17V10C9 9.44771 9.44772 9 10 9C10.5523 9 11 9.44771 11 10V17C11 17.5523 10.5523 18 10 18C9.44772 18 9 17.5523 9 17ZM13 17V10C13 9.44771 13.4477 9 14 9C14.5523 9 15 9.44771 15 10V17C15 17.5523 14.5523 18 14 18C13.4477 18 13 17.5523 13 17ZM11.3066 4C10.3919 4 10.2089 4.01673 10.0752 4.06933C9.9196 4.13057 9.78211 4.23016 9.6748 4.35839C9.60431 4.44269 9.54424 4.5608 9.39062 5H14.6094C14.4558 4.56088 14.3957 4.44273 14.3252 4.35839C14.2178 4.23011 14.0804 4.13055 13.9248 4.06933C13.791 4.01673 13.608 4 12.6934 4H11.3066ZM19 16.2002C19 17.0237 19.001 17.7016 18.9561 18.2519C18.9101 18.814 18.8117 19.3311 18.5645 19.8164C18.181 20.5689 17.5689 21.181 16.8164 21.5644C16.3311 21.8117 15.814 21.9101 15.252 21.9561C14.7016 22.001 14.0237 22 13.2002 22H10.7998C9.97632 22 9.29843 22.001 8.74805 21.9561C8.18598 21.9101 7.66891 21.8117 7.18359 21.5644C6.43109 21.181 5.81903 20.569 5.43555 19.8164C5.18829 19.3311 5.08988 18.814 5.04395 18.2519C4.99898 17.7016 5 17.0237 5 16.2002V7H4C3.44772 7 3 6.55228 3 6C3 5.44771 3.44772 5 4 5H7.2793L7.32227 4.87207C7.55756 4.16621 7.74631 3.54671 8.14062 3.07519C8.46277 2.6901 8.87651 2.39176 9.34375 2.208C9.91572 1.98314 10.5626 2 11.3066 2H12.6934C13.4374 2 14.0843 1.98315 14.6562 2.208C15.1236 2.39178 15.5373 2.69014 15.8594 3.07519C16.2536 3.54665 16.4424 4.16608 16.6777 4.87207L16.7207 5H20C20.5523 5 21 5.44771 21 6C21 6.55228 20.5523 7 20 7H19V16.2002Z" fill="#2C2825"/>
</svg>
