<svg width="24" height="24" viewBox="0 0 24 24" fill="none" xmlns="http://www.w3.org/2000/svg">
<path d="M18 21C18 17.6863 15.3137 15 12 15C8.68629 15 6 17.6863 6 21C6 21.5523 5.55228 22 5 22C4.44772 22 4 21.5523 4 21C4 16.5817 7.58173 13 12 13C16.4183 13 20 16.5817 20 21C20 21.5523 19.5523 22 19 22C18.4477 22 18 21.5523 18 21ZM15 7C15 5.34315 13.6568 4 12 4C10.3431 4 9 5.34314 9 7C9 8.65686 10.3431 10 12 10C13.6568 10 15 8.65685 15 7ZM17 7C17 9.76143 14.7614 12 12 12C9.23857 12 7 9.76143 7 7C7 4.23858 9.23857 2 12 2C14.7614 2 17 4.23857 17 7Z" fill="#2C2825"/>
</svg>
