<svg width="24" height="24" viewBox="0 0 24 24" fill="none" xmlns="http://www.w3.org/2000/svg">
<path d="M18 13.7998C18 12.972 17.8433 12.1845 17.5605 11.4658C17.3521 10.9364 16.8844 10.1891 16.2363 9.31836C15.6017 8.46568 14.8423 7.55834 14.1055 6.72168C13.3702 5.88684 12.6658 5.13173 12.1445 4.58496C12.0948 4.53283 12.0462 4.48275 12 4.43457C11.9538 4.48276 11.9052 4.53283 11.8555 4.58496C11.3342 5.13173 10.6298 5.88683 9.89453 6.72168C9.15766 7.55834 8.39829 8.46568 7.76367 9.31836C7.11564 10.1891 6.64788 10.9364 6.43945 11.4658C6.15664 12.1844 6.00002 12.972 6 13.7998C6 17.2507 8.71267 20 12 20C15.2873 20 18 17.2507 18 13.7998ZM20 13.7998C20 18.3017 16.4447 22 12 22C7.55535 22 4 18.3017 4 13.7998C4.00002 12.7181 4.2047 11.6823 4.57812 10.7334C4.88902 9.94356 5.49299 9.01913 6.15918 8.12402C6.83897 7.21066 7.63751 6.25784 8.39355 5.39941C9.1511 4.53929 9.87468 3.76374 10.4082 3.2041C10.6749 2.92431 10.8952 2.69811 11.0488 2.54102C11.1257 2.46242 11.1862 2.40025 11.2275 2.3584C11.2481 2.33761 11.2645 2.32148 11.2754 2.31055C11.2807 2.30525 11.2843 2.3007 11.2871 2.29785C11.2886 2.2964 11.2902 2.29572 11.291 2.29492L11.292 2.29395V2.29297C11.4796 2.10513 11.7345 2 12 2C12.2655 2 12.5204 2.10514 12.708 2.29297L12 3L12.708 2.29395L12.709 2.29492C12.7098 2.29572 12.7114 2.2964 12.7129 2.29785C12.7157 2.3007 12.7193 2.30525 12.7246 2.31055C12.7355 2.32148 12.7519 2.33761 12.7725 2.3584C12.8138 2.40025 12.8743 2.46242 12.9512 2.54102C13.1048 2.69811 13.3251 2.92431 13.5918 3.2041C14.1253 3.76374 14.8489 4.53928 15.6064 5.39941C16.3625 6.25784 17.161 7.21066 17.8408 8.12402C18.507 9.01913 19.111 9.94357 19.4219 10.7334C19.7952 11.6822 20 12.7181 20 13.7998Z" fill="#2C2825"/>
</svg>
