<svg width="24" height="24" viewBox="0 0 24 24" fill="none" xmlns="http://www.w3.org/2000/svg">
<path d="M15.0127 8.126V5.09182C15.0127 4.08774 14.3535 3.24587 13.4629 3.01565C13.1949 2.9464 12.8657 3.13226 12.8291 3.50979L12.6006 5.87893C12.2219 9.79124 8.78154 12.6718 4.92676 12.1739C4.11162 12.0688 3.47285 12.5078 3.32422 13.1641C3.14747 13.9446 3 14.9402 3 16.0889C3.00001 17.1245 3.12024 18.0357 3.27344 18.7774C3.4777 19.7661 3.53337 19.8906 3.76074 20.0918L3.83887 20.1543C4.02576 20.2862 4.29341 20.3332 5.37793 20.3955L15.8027 20.9942C17.9447 21.1169 19.768 19.2439 19.582 16.9375C19.5289 16.2785 19.6291 15.6153 19.876 15.003L20.2021 14.1934C20.537 13.3627 20.7609 12.804 20.8896 12.3721C21.0173 11.944 21.0072 11.7767 20.9902 11.7012C20.9317 11.4424 20.7855 11.2216 20.5889 11.0752C20.5432 11.0412 20.4158 10.9691 19.9902 10.9268C19.5602 10.884 18.9806 10.8828 18.1084 10.8828H17.7119C17.4054 10.8828 17.1029 10.8832 16.8496 10.8584C16.58 10.832 16.2635 10.7699 15.958 10.5772V10.5762C15.6862 10.4046 15.4604 10.1707 15.2979 9.89553C15.1179 9.59074 15.0599 9.2773 15.0352 9.00784C15.0117 8.75184 15.0127 8.44479 15.0127 8.126ZM17.0127 8.126C17.0127 8.48202 17.0132 8.68171 17.0264 8.82522C17.0278 8.84099 17.0298 8.85468 17.0312 8.86624C17.0353 8.86668 17.0395 8.86775 17.0439 8.86819C17.1772 8.88124 17.3654 8.88284 17.7119 8.88284H18.1084C18.9386 8.88284 19.6362 8.88167 20.1885 8.93655C20.7452 8.99191 21.3057 9.11431 21.7842 9.47073H21.7832C22.371 9.90835 22.779 10.5458 22.9404 11.2598C23.0704 11.8346 22.9693 12.3987 22.8066 12.9444C22.6447 13.4872 22.3776 14.1477 22.0576 14.9414L21.7305 15.75L21.7314 15.751C21.6012 16.0742 21.5469 16.4264 21.5752 16.7774C21.8523 20.2173 19.1165 23.1881 15.6875 22.9912L5.26367 22.3926C4.22747 22.3331 3.25992 22.319 2.43555 21.5899C1.63431 20.8809 1.49731 20.0668 1.31445 19.1817C1.13762 18.3255 1 17.2779 1 16.0889C1 14.77 1.16857 13.6246 1.37305 12.7217C1.76396 10.9963 3.32368 10.0948 4.87402 10.1641L5.18359 10.1905L5.43359 10.2158C8.00848 10.4097 10.3421 8.44816 10.6094 5.68557L10.8389 3.31741C10.9867 1.79073 12.4345 0.684299 13.9629 1.07913C15.7752 1.54739 17.0127 3.21643 17.0127 5.09182V8.126Z" fill="#EDE8E0"/>
<path d="M6.04272 11.2129C6.20143 10.6839 6.75885 10.3833 7.28784 10.542C7.81657 10.7008 8.1163 11.2583 7.95776 11.7871L7.82104 12.2441C6.99331 15.0033 7.03804 17.9507 7.94897 20.6836C8.12362 21.2075 7.8401 21.7736 7.31616 21.9482C6.79228 22.1229 6.22623 21.8402 6.05151 21.3164C5.01023 18.1925 4.95885 14.8229 5.90503 11.6689L6.04272 11.2129Z" fill="#EDE8E0"/>
</svg>
