<svg width="24" height="24" viewBox="0 0 24 24" fill="none" xmlns="http://www.w3.org/2000/svg">
<path d="M21 12C21 7.02944 16.9706 3 12 3C7.02944 3 3 7.02944 3 12C3 16.9706 7.02944 21 12 21C16.9706 21 21 16.9706 21 12ZM23 12C23 18.0751 18.0751 23 12 23C5.92487 23 1 18.0751 1 12C1 5.92487 5.92487 1 12 1C18.0751 1 23 5.92487 23 12Z" fill="#EDE8E0"/>
<path d="M7 9.04962V8.95001C7 8.39773 7.44772 7.95001 8 7.95001C8.55228 7.95001 9 8.39773 9 8.95001V9.04962C9 9.60191 8.55228 10.0496 8 10.0496C7.44772 10.0496 7 9.60191 7 9.04962Z" fill="#EDE8E0"/>
<path d="M15 9.04962V8.95001C15 8.39773 15.4477 7.95001 16 7.95001C16.5523 7.95001 17 8.39773 17 8.95001V9.04962C17 9.60191 16.5523 10.0496 16 10.0496C15.4477 10.0496 15 9.60191 15 9.04962Z" fill="#EDE8E0"/>
<path d="M12 12C14.7638 12 16.356 13.9073 16.9482 15.6836C17.1229 16.2074 16.8402 16.7735 16.3164 16.9482C15.7926 17.1229 15.2265 16.8402 15.0518 16.3164C14.6439 15.0928 13.6542 14 12 14C10.3457 14 9.35613 15.0927 8.94824 16.3164C8.77348 16.8402 8.20744 17.1229 7.6836 16.9482C7.15984 16.7735 6.87714 16.2074 7.05176 15.6836C7.64395 13.9073 9.23613 12 12 12Z" fill="#EDE8E0"/>
</svg>
