<svg width="24" height="24" viewBox="0 0 24 24" fill="none" xmlns="http://www.w3.org/2000/svg">
<path d="M15.8643 3.042C17.2541 1.65239 19.5076 1.65245 20.8975 3.042C22.2872 4.43184 22.2871 6.6853 20.8975 8.0752V8.07618L8.65919 20.3145C8.24051 20.7331 7.7069 21.0186 7.12598 21.1348L3.1963 21.9209C2.86853 21.9865 2.52939 21.8837 2.29298 21.6475C2.0566 21.4111 1.95405 21.0719 2.01954 20.7441L2.80567 16.8135C2.92187 16.2329 3.20734 15.6999 3.62598 15.2813L15.8643 3.042ZM19.4834 4.45703C18.8745 3.84817 17.8872 3.84817 17.2783 4.45703L5.04005 16.6953C4.90053 16.8349 4.80533 17.0125 4.76661 17.2061L4.27442 19.665L6.73438 19.1738C6.92765 19.1351 7.10549 19.039 7.24512 18.8994L19.4834 6.66114C20.0539 6.09043 20.0899 5.1875 19.5908 4.5752L19.4834 4.45703Z" fill="#EDE8E0"/>
<path d="M18.207 8.73297L16.793 10.147L13.793 7.14703L15.207 5.73297L18.207 8.73297Z" fill="#EDE8E0"/>
</svg>
