<svg width="24" height="24" viewBox="0 0 24 24" fill="none" xmlns="http://www.w3.org/2000/svg">
<path d="M16.1289 3.83595C17.2433 2.72155 19.0497 2.72164 20.1641 3.83595C21.2785 4.95031 21.2784 6.75672 20.1641 7.8711L14.4365 13.5986C14.0016 14.0335 13.4478 14.3304 12.8447 14.4512H12.8437L10.1963 14.9805C9.86843 15.046 9.52939 14.9435 9.29297 14.707C9.05655 14.4706 8.95396 14.1316 9.01953 13.8037L9.54883 11.1563V11.1553C9.66958 10.5521 9.9666 9.99845 10.4014 9.56349V9.56251L16.1289 3.83595ZM11.8154 10.9775C11.6597 11.1335 11.553 11.3319 11.5098 11.5479L11.2734 12.7256L12.4521 12.4902C12.6682 12.447 12.8666 12.3403 13.0225 12.1846L16.4297 8.77735L15.2227 7.57032L11.8154 10.9775ZM18.75 5.25001C18.4166 4.91663 17.8762 4.91675 17.543 5.25001L16.6367 6.15626L17.8437 7.36329L18.75 6.45704L18.8086 6.39259C19.0822 6.05734 19.0626 5.56257 18.75 5.25001Z" fill="#EDE8E0"/>
<path d="M2 19V8C2 6.34315 3.34315 5 5 5H8C8.55228 5 9 5.44772 9 6C9 6.55228 8.55228 7 8 7H5C4.44771 7 4 7.44771 4 8V19C4 19.5523 4.44771 20 5 20H16C16.5523 20 17 19.5523 17 19V16C17 15.4477 17.4477 15 18 15C18.5523 15 19 15.4477 19 16V19C19 20.6569 17.6569 22 16 22H5C3.34315 22 2 20.6569 2 19Z" fill="#EDE8E0"/>
</svg>
