<svg width="24" height="24" viewBox="0 0 24 24" fill="none" xmlns="http://www.w3.org/2000/svg">
<path d="M11 15V5.41407L8.70703 7.70704C8.31651 8.09757 7.68349 8.09757 7.29297 7.70704C6.90245 7.31652 6.90245 6.6835 7.29297 6.29298L11.293 2.29298L11.3691 2.22462C11.7619 1.90427 12.3409 1.92686 12.707 2.29298L16.707 6.29298C17.0976 6.6835 17.0976 7.31652 16.707 7.70704C16.3165 8.09757 15.6835 8.09757 15.293 7.70704L13 5.41407V15C13 15.5523 12.5523 16 12 16C11.4477 16 11 15.5523 11 15Z" fill="#EDE8E0"/>
<path d="M1.75781 16.0303C2.29353 15.8965 2.8358 16.2221 2.96973 16.7578L3.5918 19.2422C3.70308 19.6873 4.10267 20 4.56152 20H19.4385C19.8974 20 20.2969 19.6874 20.4082 19.2422L21.0303 16.7578C21.1642 16.2221 21.7065 15.8965 22.2422 16.0303C22.7779 16.1642 23.1035 16.7065 22.9697 17.2422L22.3486 19.7276C22.0147 21.063 20.8151 22 19.4385 22H4.56152C3.18494 22 1.98524 21.063 1.65137 19.7276L1.03027 17.2422C0.896475 16.7065 1.22209 16.1642 1.75781 16.0303Z" fill="#EDE8E0"/>
</svg>
