<svg width="24" height="24" viewBox="0 0 24 24" fill="none" xmlns="http://www.w3.org/2000/svg">
<path d="M21 6.00006C21 4.34321 19.6568 3.00006 18 3.00006H5.99997C4.34311 3.00006 2.99997 4.34321 2.99997 6.00006V18.0001C2.99997 19.6569 4.34312 21.0001 5.99997 21.0001H18C19.6568 21.0001 21 19.6569 21 18.0001V6.00006ZM23 18.0001C23 20.7614 20.7614 23.0001 18 23.0001H5.99997C3.23854 23.0001 0.999969 20.7614 0.999969 18.0001V6.00006C0.999969 3.23864 3.23854 1.00006 5.99997 1.00006H18C20.7613 1.00006 23 3.23863 23 6.00006V18.0001Z" fill="#EDE8E0"/>
<path d="M9.99997 8.50006C9.99997 7.67163 9.3284 7.00006 8.49997 7.00006C7.67154 7.00006 6.99997 7.67163 6.99997 8.50006C6.99997 9.32849 7.67154 10.0001 8.49997 10.0001C9.3284 10.0001 9.99997 9.32849 9.99997 8.50006ZM12 8.50006C12 10.4331 10.433 12.0001 8.49997 12.0001C6.56697 12.0001 4.99997 10.4331 4.99997 8.50006C4.99997 6.56706 6.56697 5.00006 8.49997 5.00006C10.433 5.00006 12 6.56706 12 8.50006Z" fill="#EDE8E0"/>
<path d="M20.9961 17.944C20.989 17.9339 20.9766 17.9155 20.9531 17.8874C20.9102 17.8362 20.8586 17.7803 20.7724 17.6862L16.7431 13.2907C16.3458 12.8574 15.6624 12.8588 15.2666 13.2937L8.26071 20.9997H18.1328C19.7163 20.9997 21 19.716 21 18.1325V17.9997C21 17.9722 20.9972 17.9544 20.9961 17.944ZM23 18.1325C23 20.8206 20.8209 22.9997 18.1328 22.9997H5.99997C5.60434 22.9997 5.24615 22.7667 5.08591 22.405C4.92585 22.0432 4.99379 21.6207 5.25973 21.3278L13.7861 11.9489V11.948C14.9732 10.6426 17.0254 10.6386 18.2177 11.9392L22.247 16.3347L22.4853 16.6022C22.5742 16.7089 22.6663 16.8313 22.7422 16.9646C22.9244 17.2847 22.9999 17.6223 23 17.9997V18.1325Z" fill="#EDE8E0"/>
</svg>
