<svg width="24" height="24" viewBox="0 0 24 24" fill="none" xmlns="http://www.w3.org/2000/svg">
<path d="M20 5.00006C20.2844 5.00006 20.5554 5.12115 20.7451 5.33307C20.9348 5.54499 21.0255 5.82774 20.9941 6.11041L19.414 20.3311C19.2453 21.8504 17.9602 23.0001 16.4316 23.0001H7.56736C6.03892 22.9998 4.75471 21.8502 4.58592 20.3311L3.00584 6.11041C2.97446 5.82774 3.06518 5.54499 3.25486 5.33307C3.44456 5.12115 3.71556 5.00006 3.99998 5.00006H20ZM6.5742 20.1104C6.63045 20.6166 7.05803 20.9998 7.56736 21.0001H16.4316C16.9412 21.0001 17.3695 20.6167 17.4258 20.1104L18.8828 7.00006H5.11717L6.5742 20.1104Z" fill="#EDE8E0"/>
<path d="M14.8457 1.00006C16.0071 1.00006 17.0643 1.67038 17.5596 2.72076L18.9043 5.5733C19.0503 5.88295 19.0279 6.24606 18.8447 6.53522C18.6613 6.82444 18.3424 7.00006 18 7.00006H5.99998C5.65751 7.00006 5.33865 6.82444 5.15525 6.53522C4.97206 6.24606 4.94971 5.88295 5.09568 5.5733L6.44041 2.72076C6.93564 1.67033 7.99295 1.00006 9.15428 1.00006H14.8457ZM9.15428 3.00006C8.76721 3.00006 8.41411 3.22321 8.249 3.5733L7.57615 5.00006H16.4238L15.751 3.5733C15.5858 3.22317 15.2328 3.00006 14.8457 3.00006H9.15428Z" fill="#EDE8E0"/>
<path d="M22 5.00006C22.5523 5.00006 23 5.44778 23 6.00006C23 6.55235 22.5523 7.00006 22 7.00006H1.99998C1.44769 7.00006 0.999977 6.55235 0.999977 6.00006C0.999977 5.44778 1.44769 5.00006 1.99998 5.00006H22Z" fill="#EDE8E0"/>
<path d="M8.99998 16.0001V11.0001C8.99998 10.4478 9.44769 10.0001 9.99998 10.0001C10.5523 10.0001 11 10.4478 11 11.0001V16.0001C11 16.5523 10.5523 17.0001 9.99998 17.0001C9.44769 17.0001 8.99998 16.5523 8.99998 16.0001Z" fill="#EDE8E0"/>
<path d="M13 16.0001V11.0001C13 10.4478 13.4477 10.0001 14 10.0001C14.5523 10.0001 15 10.4478 15 11.0001V16.0001C15 16.5523 14.5523 17.0001 14 17.0001C13.4477 17.0001 13 16.5523 13 16.0001Z" fill="#EDE8E0"/>
</svg>
