<svg width="24" height="24" viewBox="0 0 24 24" fill="none" xmlns="http://www.w3.org/2000/svg">
<path d="M1.99999 21.9912V17.9912C1.99999 14.3461 1.96737 10.0803 4.30468 6.74707C6.70018 3.33093 11.3506 1.1583 19.9697 1L20.1728 1.00684C21.1805 1.09148 22.0102 1.93635 21.9932 3.00391C21.9546 5.445 21.6977 9.41002 19.8262 12.7861C18.8802 14.4925 17.5162 16.0584 15.5644 17.1914C13.6141 18.3235 11.1329 18.9912 7.99999 18.9912C7.44777 18.9912 7.0001 18.5434 6.99999 17.9912C6.99999 17.4389 7.44771 16.9912 7.99999 16.9912C10.8439 16.9912 12.9659 16.3876 14.5605 15.4619C16.1539 14.5369 17.2776 13.2568 18.0762 11.8164C19.687 8.91069 19.9529 5.39088 19.9922 3C11.6333 3.15578 7.79285 5.25659 5.94238 7.89551C4.03274 10.6189 3.99999 14.1932 3.99999 17.9912V21.9912C3.99989 22.5434 3.55221 22.9912 2.99999 22.9912C2.44777 22.9912 2.0001 22.5434 1.99999 21.9912Z" fill="#EDE8E0"/>
<path d="M10.876 9.99886C11.424 9.93035 11.9237 10.319 11.9922 10.867C12.0607 11.415 11.672 11.9147 11.124 11.9832C7.40546 12.4481 5.68253 14.0401 4.85156 15.3905C4.4234 16.0863 4.20915 16.7559 4.10254 17.2489C4.04941 17.4946 4.02311 17.6936 4.01074 17.825C4.00458 17.8905 4.00224 17.939 4.00098 17.9676C4.00036 17.9816 4.00009 17.9908 4 17.995V17.9969L3.99512 18.0936C3.94379 18.5977 3.51768 18.991 3 18.991C2.44772 18.991 2 18.5433 2 17.991H3C2.04603 17.991 2.00202 17.9907 2 17.9901V17.952C2.0004 17.9334 2.00163 17.9092 2.00293 17.8797C2.00557 17.82 2.01105 17.738 2.02051 17.6375C2.03939 17.437 2.07566 17.1592 2.14746 16.827C2.29086 16.1638 2.57683 15.2705 3.14844 14.3416C4.31752 12.442 6.59474 10.534 10.876 9.99886Z" fill="#EDE8E0"/>
</svg>
