<svg width="24" height="24" viewBox="0 0 24 24" fill="none" xmlns="http://www.w3.org/2000/svg">
<path d="M21 12C21 7.02944 16.9706 3 12 3C7.02944 3 3 7.02944 3 12C3 16.9706 7.02944 21 12 21C16.9706 21 21 16.9706 21 12ZM23 12C23 18.0751 18.0751 23 12 23C5.92487 23 1 18.0751 1 12C1 5.92487 5.92487 1 12 1C18.0751 1 23 5.92487 23 12Z" fill="#EDE8E0"/>
<path d="M7 9.04962V8.95001C7 8.39773 7.44772 7.95001 8 7.95001C8.55228 7.95001 9 8.39773 9 8.95001V9.04962C9 9.60191 8.55228 10.0496 8 10.0496C7.44772 10.0496 7 9.60191 7 9.04962Z" fill="#EDE8E0"/>
<path d="M15 9.04962V8.95001C15 8.39773 15.4477 7.95001 16 7.95001C16.5523 7.95001 17 8.39773 17 8.95001V9.04962C17 9.60191 16.5523 10.0496 16 10.0496C15.4477 10.0496 15 9.60191 15 9.04962Z" fill="#EDE8E0"/>
<path d="M16 13C16.5523 13 17 13.4477 17 14C17 16.7614 14.7614 19 12 19C9.23857 19 7 16.7614 7 14C7 13.4477 7.44772 13 8 13H16ZM9.17383 15C9.58595 16.1647 10.6942 17 12 17C13.3058 17 14.414 16.1647 14.8262 15H9.17383Z" fill="#EDE8E0"/>
</svg>
