<svg width="24" height="24" viewBox="0 0 24 24" fill="none" xmlns="http://www.w3.org/2000/svg">
<path d="M21 12C21 7.02944 16.9706 3 12 3C7.02944 3 3 7.02944 3 12C3 16.9706 7.02944 21 12 21C16.9706 21 21 16.9706 21 12ZM23 12C23 18.0751 18.0751 23 12 23C5.92487 23 1 18.0751 1 12C1 5.92487 5.92487 1 12 1C18.0751 1 23 5.92487 23 12Z" fill="#EDE8E0"/>
<path d="M7 9.04962V8.95001C7 8.39773 7.44772 7.95001 8 7.95001C8.55228 7.95001 9 8.39773 9 8.95001V9.04962C9 9.60191 8.55228 10.0496 8 10.0496C7.44772 10.0496 7 9.60191 7 9.04962Z" fill="#EDE8E0"/>
<path d="M15 9.04962V8.95001C15 8.39773 15.4477 7.95001 16 7.95001C16.5523 7.95001 17 8.39773 17 8.95001V9.04962C17 9.60191 16.5523 10.0496 16 10.0496C15.4477 10.0496 15 9.60191 15 9.04962Z" fill="#EDE8E0"/>
<path d="M15.0518 13.6836C15.2265 13.1598 15.7926 12.8771 16.3164 13.0517C16.8402 13.2265 17.1229 13.7925 16.9482 14.3164C16.356 16.0927 14.7638 18 12 18C9.23613 18 7.64395 16.0927 7.05176 14.3164C6.87714 13.7925 7.15984 13.2265 7.6836 13.0517C8.20744 12.8771 8.77348 13.1598 8.94824 13.6836C9.35613 14.9072 10.3457 16 12 16C13.6542 16 14.6439 14.9072 15.0518 13.6836Z" fill="#EDE8E0"/>
</svg>
