<svg width="24" height="24" viewBox="0 0 24 24" fill="none" xmlns="http://www.w3.org/2000/svg">
<path d="M6.51661 1.00385C6.85889 0.995367 7.33469 0.998695 7.86817 1.04878C8.89087 1.14482 10.3166 1.42645 11.3613 2.29682C12.4412 3.19667 12.8126 4.46306 12.9375 5.38667C13.0015 5.86007 13.0059 6.28098 12.9951 6.58393C12.9897 6.73636 12.9803 6.86202 12.9717 6.9521C12.9674 6.99704 12.9632 7.0336 12.96 7.06049C12.9584 7.0739 12.9572 7.08511 12.9561 7.0937C12.9555 7.09784 12.9555 7.10146 12.9551 7.10444C12.9549 7.1058 12.9543 7.10724 12.9541 7.10835V7.11128C12.8968 7.50939 12.608 7.82925 12.2305 7.93354L12.0625 7.96479H12.0606C12.0595 7.96489 12.058 7.96563 12.0566 7.96577C12.054 7.96602 12.0508 7.96639 12.0469 7.96674C12.0385 7.96752 12.0267 7.9685 12.0127 7.96967C11.9843 7.97205 11.9442 7.97518 11.8945 7.97846C11.7952 7.98502 11.6551 7.99178 11.4834 7.99604C11.1411 8.00453 10.6653 8.0012 10.1318 7.95112C9.10915 7.85508 7.68338 7.57345 6.63868 6.70307C5.55887 5.80323 5.18742 4.53683 5.06251 3.61323C4.99849 3.13981 4.99408 2.71891 5.00489 2.41596C5.01033 2.26353 5.01976 2.13787 5.02833 2.0478C5.0326 2.00287 5.03681 1.96629 5.04005 1.9394C5.04166 1.92601 5.04282 1.91478 5.04395 1.9062C5.0445 1.90206 5.04452 1.89843 5.04493 1.89545C5.04512 1.89408 5.04575 1.89266 5.0459 1.89155V1.88862C5.04599 1.88827 5.05242 1.88902 6.03614 2.03022L5.0459 1.88862C5.11136 1.43358 5.47911 1.08091 5.93653 1.0351H5.93946C5.94047 1.035 5.94198 1.03426 5.94337 1.03413C5.94599 1.03388 5.94924 1.03351 5.95313 1.03315C5.96155 1.03238 5.97327 1.0314 5.98731 1.03022C6.01574 1.02784 6.05577 1.02471 6.10548 1.02143C6.20478 1.01487 6.34491 1.00812 6.51661 1.00385ZM7.01172 3.00288C7.01868 3.11131 7.02889 3.22604 7.04493 3.34467C7.13866 4.03781 7.38863 4.72402 7.91895 5.16596C8.48438 5.63716 9.40113 5.87376 10.3184 5.95991C10.5578 5.98239 10.7845 5.9917 10.9873 5.99604C10.9804 5.88791 10.9711 5.77348 10.9551 5.65522C10.8614 4.96208 10.6114 4.27587 10.0811 3.83393C9.51562 3.36274 8.59889 3.12614 7.68165 3.03999C7.44186 3.01747 7.21476 3.0072 7.01172 3.00288Z" fill="#EDE8E0"/>
<path d="M17.4834 1.00385C17.6551 1.00812 17.7952 1.01487 17.8945 1.02143C17.9442 1.02471 17.9843 1.02784 18.0127 1.03022C18.0267 1.0314 18.0385 1.03238 18.0469 1.03315C18.0508 1.03351 18.054 1.03388 18.0567 1.03413C18.058 1.03426 18.0596 1.035 18.0606 1.0351H18.0625C18.5202 1.08072 18.8886 1.43244 18.9541 1.88764L17.9639 2.03022C18.951 1.88851 18.9541 1.88827 18.9541 1.88862V1.89155C18.9543 1.89266 18.9549 1.89409 18.9551 1.89545C18.9555 1.89843 18.9555 1.90206 18.9561 1.9062C18.9572 1.91478 18.9584 1.926 18.96 1.9394C18.9632 1.96629 18.9674 2.00286 18.9717 2.0478C18.9803 2.13787 18.9897 2.26353 18.9951 2.41596C19.0059 2.71891 19.0015 3.13982 18.9375 3.61323C18.8126 4.53683 18.4412 5.80323 17.3613 6.70307C16.3166 7.57344 14.8909 7.85507 13.8682 7.95112C13.3347 8.0012 12.8589 8.00453 12.5166 7.99604C12.3449 7.99178 12.2048 7.98502 12.1055 7.97846C12.0558 7.97518 12.0157 7.97205 11.9873 7.96967C11.9733 7.9685 11.9616 7.96752 11.9531 7.96674C11.9492 7.96639 11.946 7.96602 11.9434 7.96577C11.942 7.96563 11.9405 7.96489 11.9395 7.96479H11.9375C11.9375 7.96236 11.942 7.91455 12.0361 6.96967C11.0492 7.11137 11.046 7.11163 11.0459 7.11127V7.10835C11.0458 7.10724 11.0451 7.1058 11.0449 7.10444C11.0445 7.10146 11.0445 7.09783 11.044 7.0937C11.0428 7.08511 11.0417 7.07389 11.0401 7.06049C11.0368 7.0336 11.0326 6.99704 11.0283 6.9521C11.0198 6.86202 11.0103 6.73636 11.0049 6.58393C10.9941 6.28098 10.9985 5.86007 11.0625 5.38667C11.1874 4.46306 11.5589 3.19667 12.6387 2.29682C13.6834 1.42646 15.1092 1.14481 16.1318 1.04877C16.6653 0.998697 17.1411 0.995367 17.4834 1.00385ZM11.9365 7.96479C11.4791 7.91897 11.1114 7.56729 11.0459 7.11225L12.0361 6.96967L11.9365 7.96479ZM16.9873 3.00288C16.7845 3.00721 16.5578 3.0175 16.3184 3.03999C15.4011 3.12613 14.4844 3.36274 13.919 3.83393C13.3886 4.27587 13.1387 4.96208 13.0449 5.65522C13.0289 5.7735 13.0187 5.88789 13.0117 5.99604C13.2148 5.99172 13.4419 5.98243 13.6817 5.95991C14.5989 5.87376 15.5156 5.63716 16.0811 5.16596C16.6114 4.72403 16.8614 4.03781 16.9551 3.34467C16.9711 3.22606 16.9804 3.11129 16.9873 3.00288Z" fill="#EDE8E0"/>
<path d="M5 10.9999V12.9999H19V10.9999H5ZM21 12.9999C21 14.1045 20.1046 14.9999 19 14.9999H5C3.89545 14.9999 3 14.1045 3 12.9999V10.9999C3 9.89534 3.89545 8.99994 5 8.99994H19C20.1046 8.99994 21 9.89535 21 10.9999V12.9999Z" fill="#EDE8E0"/>
<path d="M19 12.9999C19.3079 12.9999 19.5986 13.142 19.7881 13.3847C19.9775 13.6274 20.0443 13.9435 19.9697 14.2421L17.9697 22.2421C17.8584 22.6873 17.4589 22.9999 17 22.9999H7C6.54113 22.9999 6.14156 22.6873 6.03027 22.2421L4.03027 14.2421C3.95568 13.9435 4.02249 13.6274 4.21191 13.3847C4.40142 13.142 4.69206 12.9999 5 12.9999H19ZM7.78027 20.9999H16.2197L17.7197 14.9999H6.28027L7.78027 20.9999Z" fill="#EDE8E0"/>
</svg>
