<svg width="24" height="24" viewBox="0 0 24 24" fill="none" xmlns="http://www.w3.org/2000/svg">
<path d="M1.00098 4.02635C0.9535 2.49459 2.58462 1.57481 3.89258 2.20213L22.4326 11.0986C22.7794 11.265 23 11.6154 23 12C23 12.3846 22.7794 12.7349 22.4326 12.9014L3.89258 21.7978C2.59697 22.4192 0.991412 21.5256 1.00001 20.0234L1.00782 19.8779C1.02224 19.7406 1.0535 19.6275 1.07618 19.5527L2.54297 14.7099C2.70314 14.1814 3.26152 13.8828 3.79005 14.043C4.31855 14.2031 4.61716 14.7615 4.45704 15.29L3.03223 19.9912L19.6885 12L3.02735 4.00585C3.02413 4.00431 3.02171 4.00269 3.01954 4.00194L4.7793 11H9.91114C10.4634 11 10.9111 11.4477 10.9111 12C10.9111 12.5523 10.4634 13 9.91114 13H4.00001C3.54174 13 3.14215 12.6885 3.03028 12.2441L1.05274 4.37889C1.03383 4.3036 1.00571 4.1775 1.00098 4.02635Z" fill="#EDE8E0"/>
</svg>
