<svg width="24" height="24" viewBox="0 0 24 24" fill="none" xmlns="http://www.w3.org/2000/svg">
<path d="M13 3.26862C13 3.12032 12.8797 3.00009 12.7314 3.00006H11.2685C11.1202 3.00009 11 3.12032 11 3.26862C11 4.32648 10.2848 5.149 9.43259 5.48541C9.35829 5.51473 9.28403 5.54541 9.21091 5.57721C8.37002 5.94301 7.28156 5.86752 6.53318 5.1192C6.42823 5.01425 6.25832 5.01437 6.1533 5.1192L5.11912 6.15338C5.01418 6.25841 5.01412 6.42827 5.11912 6.53326C5.86748 7.28165 5.94288 8.37011 5.57713 9.211C5.54534 9.28408 5.51467 9.35832 5.48533 9.43268C5.14892 10.2848 4.32638 11.0001 3.26853 11.0001C3.12024 11.0001 3 11.1203 2.99998 11.2686V12.7315C3 12.8798 3.12024 13 3.26853 13.0001C4.32633 13.0001 5.1489 13.7152 5.48533 14.5674V14.5684C5.51455 14.6425 5.54532 14.716 5.57713 14.7891C5.94293 15.63 5.86745 16.7185 5.11912 17.4669C5.02722 17.5587 5.01594 17.7004 5.08494 17.8047L5.11912 17.8467L6.1533 18.8809C6.25832 18.9858 6.42823 18.9859 6.53318 18.8809L6.67771 18.7481C7.36752 18.1665 8.28906 18.0886 9.04978 18.3594L9.21091 18.4229L9.43162 18.5147H9.43259C10.2847 18.8512 11 19.6737 11 20.7315C11 20.8798 11.1203 21 11.2685 21.0001H12.7314C12.8797 21 13 20.8798 13 20.7315C13 19.6737 13.7152 18.8512 14.5674 18.5147H14.5683C14.6428 18.4854 14.7163 18.4545 14.789 18.4229C15.6299 18.0571 16.7184 18.1324 17.4668 18.8809C17.5718 18.9859 17.7417 18.9859 17.8467 18.8809L18.8808 17.8467C18.9857 17.7418 18.9858 17.5718 18.8808 17.4669C18.1325 16.7185 18.057 15.63 18.4228 14.7891V14.7881C18.4542 14.7162 18.4852 14.6431 18.5146 14.5684V14.5674C18.8511 13.7154 19.6735 13.0001 20.7314 13.0001C20.8797 13 21 12.8798 21 12.7315V11.2686C21 11.1203 20.8797 11.0001 20.7314 11.0001C19.6736 11.0001 18.8511 10.2848 18.5146 9.43268V9.4317L18.4228 9.211C18.057 8.37016 18.1324 7.28163 18.8808 6.53326L18.915 6.49127C18.9841 6.38695 18.9727 6.24531 18.8808 6.15338L17.8467 5.1192C17.7417 5.01424 17.5718 5.01426 17.4668 5.1192C16.7184 5.86762 15.6299 5.94298 14.789 5.57721C14.7161 5.54547 14.6418 5.51478 14.5674 5.48541C13.7151 5.14898 13 4.32642 13 3.26862ZM15 3.26862C15 3.36828 15.0773 3.53648 15.3017 3.62506C15.3975 3.66283 15.4926 3.70222 15.5869 3.74323C15.808 3.83942 15.9822 3.77562 16.0527 3.70514C16.9387 2.81915 18.3747 2.81912 19.2607 3.70514L20.2949 4.73932C21.1808 5.62535 21.1809 7.06134 20.2949 7.94733C20.2244 8.01784 20.1606 8.19205 20.2568 8.41315C20.298 8.50774 20.3373 8.60282 20.375 8.6983L20.4111 8.77545C20.5041 8.9409 20.6442 9.00006 20.7314 9.00006C21.9843 9.00009 23 10.0158 23 11.2686V12.7315C23 13.9844 21.9843 15 20.7314 15.0001C20.6443 15.0001 20.5041 15.0592 20.4111 15.2247L20.375 15.3018C20.3375 15.3967 20.2971 15.4913 20.2558 15.586L20.2568 15.587C20.1606 15.8081 20.2243 15.9822 20.2949 16.0528C21.1809 16.9388 21.1808 18.3748 20.2949 19.2608L19.2607 20.295C18.3747 21.181 16.9387 21.181 16.0527 20.295C15.9823 20.2245 15.808 20.1607 15.5869 20.2569L15.3017 20.3751C15.0773 20.4637 15 20.6319 15 20.7315C15 21.9844 13.9843 23 12.7314 23.0001H11.2685C10.0157 23 9 21.9844 8.99998 20.7315C8.99998 20.6443 8.94082 20.5042 8.77537 20.4112L8.69822 20.3751C8.60263 20.3374 8.50777 20.2972 8.41306 20.2559V20.2569C8.19212 20.1608 8.01795 20.2244 7.94724 20.295C7.06117 21.1812 5.62433 21.1812 4.73826 20.295L3.70506 19.2608V19.2618C2.81893 18.3757 2.81893 16.9388 3.70506 16.0528C3.77565 15.9821 3.83929 15.808 3.74314 15.587L3.62498 15.3018C3.5364 15.0774 3.36819 15.0001 3.26853 15.0001C2.01564 15 1 13.9843 0.999977 12.7315V11.2686C1 10.0158 2.01564 9.00009 3.26853 9.00006C3.36815 9.00006 3.53638 8.92274 3.62498 8.6983C3.66278 8.6025 3.70218 8.50732 3.74314 8.41315C3.83933 8.19201 3.77562 8.01792 3.70506 7.94733C2.81901 7.06128 2.81907 5.6254 3.70506 4.73932L4.73826 3.70514C5.62431 2.81907 7.06119 2.81907 7.94724 3.70514C8.01786 3.77569 8.192 3.83939 8.41306 3.74323C8.50719 3.70228 8.60235 3.66288 8.69822 3.62506C8.92266 3.53646 8.99998 3.36824 8.99998 3.26862C9 2.01572 10.0157 1.00009 11.2685 1.00006H12.7314C13.9843 1.00009 15 2.01572 15 3.26862Z" fill="#EDE8E0"/>
<path d="M15 12.0001C15 10.3432 13.6568 9.00006 12 9.00006C10.3431 9.00006 8.99998 10.3432 8.99998 12.0001C8.99998 13.6569 10.3431 15.0001 12 15.0001C13.6568 15.0001 15 13.6569 15 12.0001ZM17 12.0001C17 14.7614 14.7614 17.0001 12 17.0001C9.23855 17.0001 6.99998 14.7614 6.99998 12.0001C6.99998 9.23864 9.23855 7.00006 12 7.00006C14.7614 7.00006 17 9.23863 17 12.0001Z" fill="#EDE8E0"/>
</svg>
