<svg width="24" height="24" viewBox="0 0 24 24" fill="none" xmlns="http://www.w3.org/2000/svg">
<path d="M18.0147 11.0127C17.9827 8.31105 15.5604 6.01059 12.7188 6.00392L11.2529 6.00002C8.42045 5.99337 6.00432 8.30486 5.98535 11.0078V14.7891C5.98535 15.5906 5.89418 16.5284 5.39551 17.3858L5.29004 17.5567L5.00293 17.9942L5 18H19C18.9996 17.9991 18.999 17.997 18.9971 17.9942L18.71 17.5567C18.1184 16.6545 18.0147 15.6441 18.0147 14.7891V11.0127ZM20.0147 14.7891C20.0147 15.5134 20.1126 16.048 20.3828 16.46L20.6689 16.8975C21.5245 18.2021 20.6252 20 19.0147 20H4.98535C3.37483 20 2.4755 18.2021 3.33106 16.8975L3.61719 16.46C3.88737 16.048 3.98535 15.5134 3.98535 14.7891V10.9942C4.01252 7.11307 7.4025 3.99119 11.2568 4.00002L12.7236 4.00392C16.569 4.01294 19.9688 7.10641 20.0147 10.9893V14.7891Z" fill="#EDE8E0"/>
<path d="M8 19C8 18.4477 8.44772 18 9 18C9.55228 18 10 18.4477 10 19C10 20.1046 10.8954 21 12 21C13.1046 21 14 20.1046 14 19C14 18.4477 14.4477 18 15 18C15.5523 18 16 18.4477 16 19C16 21.2092 14.2092 23 12 23C9.79082 23 8 21.2092 8 19Z" fill="#EDE8E0"/>
<path d="M13 4C13 3.44771 12.5523 3 12 3C11.4477 3 11 3.44771 11 4H13ZM15 5C15 5.55228 14.5523 6 14 6H10C9.44772 6 9 5.55228 9 5V4C9 2.34315 10.3431 1 12 1C13.6569 1 15 2.34315 15 4V5Z" fill="#EDE8E0"/>
</svg>
