<svg width="24" height="24" viewBox="0 0 24 24" fill="none" xmlns="http://www.w3.org/2000/svg">
<path d="M15.7347 7C15.7347 4.79086 13.9439 3 11.7347 3C9.52559 3 7.73473 4.79086 7.73473 7C7.73473 9.20914 9.52559 11 11.7347 11C13.9439 11 15.7347 9.20914 15.7347 7ZM17.7347 7C17.7347 10.3137 15.0484 13 11.7347 13C8.42102 13 5.73473 10.3137 5.73473 7C5.73473 3.68629 8.42102 1 11.7347 1C15.0484 1 17.7347 3.68629 17.7347 7Z" fill="#EDE8E0"/>
<path d="M6.73437 13C7.28665 13 7.73437 13.4477 7.73437 14C7.73437 14.5523 7.28665 15 6.73437 15H6.38281C5.37427 15.0001 4.52353 15.7512 4.39843 16.752L4.00781 19.876C3.93325 20.4727 4.39869 20.9998 4.99999 21H18.4687C19.0702 21 19.5364 20.4728 19.4619 19.876L19.0713 16.752C18.9462 15.7512 18.0953 15.0002 17.0869 15H16.7344C16.1822 14.9998 15.7344 14.5522 15.7344 14C15.7344 13.4478 16.1822 13.0002 16.7344 13H17.0869C19.1039 13.0002 20.8054 14.5024 21.0557 16.5039L21.4463 19.6279C21.67 21.4184 20.2732 23 18.4687 23H4.99999C3.19564 22.9998 1.79967 21.4183 2.02343 19.6279L2.41406 16.5039C2.66426 14.5023 4.36563 13.0001 6.38281 13H6.73437Z" fill="#EDE8E0"/>
</svg>
