<svg width="24" height="24" viewBox="0 0 24 24" fill="none" xmlns="http://www.w3.org/2000/svg">
<path d="M11.4326 20.8252C11.4051 20.8095 11.3541 20.7815 11.2783 20.7451C11.127 20.6725 10.8763 20.5661 10.5186 20.4561C9.80411 20.2362 8.65326 20 7 20C5.34674 20 4.19589 20.2362 3.48145 20.4561C3.12372 20.5661 2.87303 20.6725 2.72168 20.7451C2.64594 20.7815 2.59486 20.8095 2.56738 20.8252C2.56116 20.8288 2.55558 20.8307 2.55176 20.833H2.55371C2.55375 20.833 2.55328 20.833 2.55273 20.832C2.24614 21.0357 1.85296 21.0555 1.52832 20.8818C1.20316 20.7078 1 20.3688 1 20V6C1 5.78369 1.07045 5.57346 1.2002 5.40039L2 6C1.22718 5.42039 1.20076 5.4015 1.2002 5.40039L1.20312 5.39648C1.20414 5.39514 1.20486 5.39317 1.20605 5.3916C1.20858 5.38829 1.21153 5.38414 1.21484 5.37988C1.2215 5.37133 1.23037 5.36083 1.24023 5.34863C1.25987 5.32435 1.28582 5.29305 1.31836 5.25586C1.38392 5.18093 1.47665 5.08105 1.59668 4.96582C1.83653 4.7356 2.189 4.44021 2.66309 4.14844C3.61845 3.56052 5.04836 3 7 3C8.95164 3 10.3815 3.56052 11.3369 4.14844C11.811 4.44021 12.1635 4.7356 12.4033 4.96582C12.5234 5.08105 12.6161 5.18093 12.6816 5.25586C12.7142 5.29305 12.7401 5.32435 12.7598 5.34863C12.7696 5.36083 12.7785 5.37133 12.7852 5.37988C12.7885 5.38414 12.7914 5.38829 12.7939 5.3916C12.7951 5.39317 12.7959 5.39514 12.7969 5.39648L12.7998 5.39941C12.7992 5.40052 12.7728 5.42038 12 6L12.7998 5.39941C12.9296 5.57248 13 5.78369 13 6V20C13 20.3688 12.7968 20.7078 12.4717 20.8818C12.1468 21.0556 11.753 21.0361 11.4463 20.832L11.4326 20.8252ZM7 5C5.45185 5 4.38157 5.43953 3.71191 5.85156C3.38713 6.05143 3.15165 6.24817 3 6.3916V18.5127C3.90809 18.2448 5.22391 18 7 18C8.77609 18 10.0919 18.2448 11 18.5127V6.3916C10.8484 6.24817 10.6129 6.05143 10.2881 5.85156C9.61843 5.43953 8.54815 5 7 5ZM11.2002 6.60059L11.2012 6.60156L11.2021 6.60352C11.2028 6.60433 11.2036 6.60483 11.2041 6.60547L11.2051 6.60645C11.2039 6.60501 11.2023 6.60314 11.2002 6.60059Z" fill="#EDE8E0"/>
<path d="M21.4326 20.8252C21.4051 20.8095 21.3541 20.7815 21.2783 20.7451C21.127 20.6725 20.8763 20.5661 20.5186 20.4561C19.8041 20.2362 18.6533 20 17 20C15.3467 20 14.1959 20.2362 13.4814 20.4561C13.1237 20.5661 12.873 20.6725 12.7217 20.7451C12.6459 20.7815 12.5949 20.8095 12.5674 20.8252C12.5612 20.8288 12.5556 20.8307 12.5518 20.833H12.5537C12.5538 20.833 12.5533 20.833 12.5527 20.832C12.2461 21.0357 11.853 21.0555 11.5283 20.8818C11.2032 20.7078 11 20.3688 11 20V6C11 5.78369 11.0704 5.57346 11.2002 5.40039L12 6C11.2272 5.42039 11.2008 5.4015 11.2002 5.40039L11.2031 5.39648C11.2041 5.39514 11.2049 5.39317 11.2061 5.3916C11.2086 5.38829 11.2115 5.38414 11.2148 5.37988C11.2215 5.37133 11.2304 5.36083 11.2402 5.34863C11.2599 5.32435 11.2858 5.29305 11.3184 5.25586C11.3839 5.18093 11.4766 5.08105 11.5967 4.96582C11.8365 4.7356 12.189 4.44021 12.6631 4.14844C13.6185 3.56052 15.0484 3 17 3C18.9516 3 20.3815 3.56052 21.3369 4.14844C21.811 4.44021 22.1635 4.7356 22.4033 4.96582C22.5234 5.08105 22.6161 5.18093 22.6816 5.25586C22.7142 5.29305 22.7401 5.32435 22.7598 5.34863C22.7696 5.36083 22.7785 5.37133 22.7852 5.37988C22.7885 5.38414 22.7914 5.38829 22.7939 5.3916C22.7951 5.39317 22.7959 5.39514 22.7969 5.39648L22.7998 5.39941C22.7992 5.40052 22.7728 5.42038 22 6L22.7998 5.39941C22.9296 5.57248 23 5.78369 23 6V20C23 20.3688 22.7968 20.7078 22.4717 20.8818C22.1468 21.0556 21.753 21.0361 21.4463 20.832L21.4326 20.8252ZM17 5C15.4518 5 14.3816 5.43953 13.7119 5.85156C13.3871 6.05143 13.1516 6.24817 13 6.3916V18.5127C13.9081 18.2448 15.2239 18 17 18C18.7761 18 20.0919 18.2448 21 18.5127V6.3916C20.8484 6.24817 20.6129 6.05143 20.2881 5.85156C19.6184 5.43953 18.5482 5 17 5ZM21.2002 6.60059L21.2012 6.60156L21.2021 6.60352C21.2028 6.60433 21.2036 6.60483 21.2041 6.60547L21.2051 6.60645C21.2039 6.60501 21.2023 6.60314 21.2002 6.60059Z" fill="#EDE8E0"/>
</svg>
