<svg width="24" height="24" viewBox="0 0 24 24" fill="none" xmlns="http://www.w3.org/2000/svg">
<path d="M21 7.91112C21 7.13421 20.9324 6.42733 20.834 5.80955L20.7266 5.22264C20.5223 4.23381 20.4666 4.10939 20.2393 3.90819C20.0347 3.72718 19.8626 3.6757 18.6221 3.60448L8.19727 3.00584C6.05536 2.88306 4.23199 4.75603 4.41797 7.06248C4.47107 7.72141 4.3709 8.38469 4.12402 8.99705L3.79785 9.80662C3.46298 10.6372 3.23914 11.196 3.11035 11.6279C2.98277 12.0559 2.99278 12.2232 3.00977 12.2988C3.06833 12.5577 3.21453 12.7784 3.41113 12.9248C3.4568 12.9588 3.58421 13.0309 4.00977 13.0732C4.43983 13.116 5.01938 13.1172 5.8916 13.1172H6.28809C6.59466 13.1172 6.89706 13.1168 7.15039 13.1416C7.38635 13.1647 7.65789 13.2158 7.92676 13.3574L8.04199 13.4238L8.23731 13.5635C8.4231 13.7147 8.58031 13.8982 8.70215 14.1045C8.88216 14.4093 8.94013 14.7226 8.96485 14.9922C8.98832 15.2482 8.98731 15.5552 8.98731 15.874V18.9082C8.98731 19.9123 9.64656 20.7541 10.5371 20.9844C10.805 21.0536 11.1343 20.8678 11.1709 20.4902L11.3994 18.1221C11.7779 14.2095 15.2182 11.3282 19.0732 11.8262C19.8882 11.9313 20.5271 11.4924 20.6758 10.8359C20.8525 10.0554 21 9.05974 21 7.91112ZM23 7.91112C23 9.22997 22.8314 10.3754 22.627 11.2783C22.21 13.1185 20.4634 14.0224 18.8164 13.8096C16.1443 13.4645 13.6665 15.4627 13.3906 18.3144L13.1611 20.6826C13.0133 22.2092 11.5655 23.3158 10.0371 22.9209C8.22475 22.4526 6.98731 20.7836 6.98731 18.9082V15.874C6.98731 15.5179 6.98679 15.3183 6.97363 15.1748C6.97214 15.1585 6.96927 15.1446 6.96777 15.1328C6.96391 15.1324 6.95934 15.1322 6.95508 15.1318C6.82187 15.1188 6.63418 15.1172 6.28809 15.1172H5.8916C5.06143 15.1172 4.36377 15.1183 3.81152 15.0635C3.25478 15.0081 2.69426 14.8857 2.21582 14.5293C1.62833 14.0917 1.22109 13.4541 1.05957 12.7402C0.929593 12.1654 1.03064 11.6013 1.19336 11.0556C1.35525 10.5128 1.62239 9.8523 1.94238 9.05858L2.26953 8.24901C2.3997 7.92602 2.45309 7.57348 2.42481 7.22264C2.14767 3.78272 4.88352 0.81189 8.3125 1.00877L18.7363 1.6074C19.7725 1.6669 20.7401 1.68079 21.5645 2.41014C22.3657 3.11911 22.5027 3.93311 22.6855 4.81834C22.8625 5.67455 23 6.7221 23 7.91112Z" fill="#EDE8E0"/>
<path d="M16.6836 2.05174C17.2074 1.87713 17.7735 2.15983 17.9482 2.68358C18.9895 5.80739 19.0409 9.17706 18.0947 12.331L17.958 12.7871C17.7993 13.316 17.2418 13.6165 16.7129 13.458C16.184 13.2993 15.8835 12.7418 16.042 12.2129L16.1787 11.7558C17.0065 8.99667 16.9626 6.04924 16.0518 3.31639C15.8771 2.79255 16.1598 2.2265 16.6836 2.05174Z" fill="#EDE8E0"/>
</svg>
