<svg width="24" height="24" viewBox="0 0 24 24" fill="none" xmlns="http://www.w3.org/2000/svg">
<path d="M21 11C21 9.08611 20.9977 7.75127 20.8623 6.74414C20.7308 5.76582 20.4901 5.24793 20.1211 4.87891C19.7521 4.50992 19.2342 4.26924 18.2559 4.1377C17.2487 4.00229 15.9139 4 14 4H10C8.08611 4 6.75128 4.00229 5.74414 4.1377C4.76581 4.26924 4.24792 4.5099 3.87891 4.87891C3.5099 5.24792 3.26924 5.76581 3.1377 6.74414C3.00229 7.75128 3 9.08611 3 11C3 12.9139 3.00229 14.2487 3.1377 15.2559C3.26924 16.2342 3.50992 16.7521 3.87891 17.1211C4.28974 17.5319 4.88535 17.784 6.09766 17.9033C6.64719 17.9574 7.04901 18.4466 6.99512 18.9961C6.94106 19.5457 6.45188 19.9475 5.90235 19.8936C4.51461 19.757 3.36034 19.4307 2.46485 18.5352C1.6623 17.7327 1.31663 16.7226 1.15528 15.5225C0.997788 14.3511 1 12.8573 1 11C1 9.14265 0.997788 7.64892 1.15528 6.47754C1.31664 5.27745 1.66232 4.26738 2.46485 3.46485C3.26738 2.66232 4.27745 2.31664 5.47754 2.15528C6.64892 1.99779 8.14265 2 10 2H14C15.8573 2 17.3511 1.99779 18.5225 2.15528C19.7226 2.31663 20.7327 2.6623 21.5352 3.46485C22.3377 4.26737 22.6834 5.27745 22.8447 6.47754C23.0022 7.64892 23 9.14265 23 11C23 12.8573 23.0022 14.3511 22.8447 15.5225C22.6834 16.7225 22.3377 17.7327 21.5352 18.5352C20.7327 19.3377 19.7225 19.6834 18.5225 19.8447C17.3511 20.0022 15.8573 20 14 20C13.4477 20 13 19.5523 13 19C13 18.4477 13.4477 18 14 18C15.9139 18 17.2487 17.9977 18.2559 17.8623C19.2342 17.7308 19.7521 17.4901 20.1211 17.1211C20.4901 16.7521 20.7308 16.2342 20.8623 15.2559C20.9977 14.2487 21 12.9139 21 11Z" fill="#EDE8E0"/>
<path d="M6.59077 16.5039C7.14068 16.554 7.54604 17.0409 7.49604 17.5908L7.45307 18.0567C7.35744 19.1086 7.29661 19.8052 7.30952 20.2852C7.31061 20.3259 7.3124 20.3632 7.3144 20.3965C7.36419 20.3798 7.42262 20.364 7.48725 20.3389C7.98498 20.1454 8.67651 19.7883 9.69819 19.2578C10.992 18.586 12.5242 18 13.9999 18C14.5522 18 14.9999 18.4477 14.9999 19C14.9999 19.5523 14.5522 20 13.9999 20C13.0028 20 11.8124 20.4125 10.6191 21.0322C9.64342 21.5388 8.83583 21.9597 8.21186 22.2022C7.89786 22.3242 7.56494 22.4289 7.23627 22.46C6.89447 22.4923 6.48657 22.4509 6.11323 22.2002C5.41096 21.7286 5.32444 20.8922 5.30952 20.3399C5.29259 19.7126 5.37123 18.8719 5.46186 17.875L5.50385 17.4092C5.55398 16.8593 6.04083 16.4539 6.59077 16.5039Z" fill="#EDE8E0"/>
</svg>
