<svg width="24" height="24" viewBox="0 0 24 24" fill="none" xmlns="http://www.w3.org/2000/svg">
<path d="M21 12C21 7.02944 16.9706 3 12 3C7.02944 3 3 7.02944 3 12C3 16.9706 7.02944 21 12 21C16.9706 21 21 16.9706 21 12ZM23 12C23 18.0751 18.0751 23 12 23C5.92487 23 1 18.0751 1 12C1 5.92487 5.92487 1 12 1C18.0751 1 23 5.92487 23 12Z" fill="#EDE8E0"/>
<path d="M12 21C12.1887 21 12.4695 20.9085 12.8301 20.5273C13.1928 20.1438 13.5664 19.5343 13.9004 18.6992C14.5661 17.0346 15 14.6665 15 12C15 9.33352 14.5661 6.9654 13.9004 5.30078C13.5664 4.46568 13.1928 3.85623 12.8301 3.47266C12.4695 3.09148 12.1887 3 12 3C11.8113 3 11.5305 3.09148 11.1699 3.47266C10.8072 3.85623 10.4336 4.46568 10.0996 5.30078C9.43388 6.9654 9 9.33352 9 12C9 14.6665 9.43388 17.0346 10.0996 18.6992C10.4336 19.5343 10.8072 20.1438 11.1699 20.5273C11.5305 20.9085 11.8113 21 12 21ZM12 23C11.0843 23 10.3131 22.5319 9.7168 21.9014C9.12243 21.2729 8.63298 20.4169 8.24316 19.4424C7.46132 17.4877 7 14.8561 7 12C7 9.14394 7.46132 6.51226 8.24316 4.55762C8.63298 3.58307 9.12243 2.72712 9.7168 2.09863C10.3131 1.46815 11.0843 1 12 1C12.9157 1 13.6869 1.46815 14.2832 2.09863C14.8776 2.72712 15.367 3.58307 15.7568 4.55762C16.5387 6.51226 17 9.14394 17 12C17 14.8561 16.5387 17.4877 15.7568 19.4424C15.367 20.4169 14.8776 21.2729 14.2832 21.9014C13.6869 22.5319 12.9157 23 12 23Z" fill="#EDE8E0"/>
<path d="M22 11C22.5523 11 23 11.4477 23 12C23 12.5523 22.5523 13 22 13H2C1.44772 13 1 12.5523 1 12C1 11.4477 1.44772 11 2 11H22Z" fill="#EDE8E0"/>
</svg>
