<svg width="24" height="24" viewBox="0 0 24 24" fill="none" xmlns="http://www.w3.org/2000/svg">
<path d="M21 12.4219C21 11.5968 20.6602 10.8079 20.0605 10.2412L12.6865 3.27344C12.3011 2.90926 11.6989 2.90926 11.3135 3.27344L3.93945 10.2412C3.3398 10.8079 3 11.5968 3 12.4219V20.2481C3 20.8004 3.44771 21.2481 4 21.2481H20C20.5523 21.2481 21 20.8004 21 20.2481V12.4219ZM23 20.2481C23 21.9049 21.6569 23.2481 20 23.2481H4C2.34315 23.2481 1 21.9049 1 20.2481V12.4219C1 11.047 1.5662 9.73254 2.56543 8.78809L9.93945 1.81934C11.0958 0.726724 12.9042 0.726724 14.0605 1.81934L21.4346 8.78809C22.4338 9.73253 23 11.047 23 12.4219V20.2481Z" fill="#EDE8E0"/>
</svg>
