<svg width="24" height="24" viewBox="0 0 24 24" fill="none" xmlns="http://www.w3.org/2000/svg">
<path d="M21.248 8.34079C21.6117 7.92592 22.2428 7.88389 22.6582 8.24704C23.0737 8.61063 23.1163 9.24254 22.7529 9.65818L22 8.99997C22.7308 9.63948 22.7516 9.65826 22.7519 9.65915L22.75 9.66208C22.7488 9.66348 22.7468 9.66509 22.7451 9.66697C22.7418 9.67068 22.7374 9.6751 22.7324 9.68064C22.7223 9.6919 22.7085 9.70713 22.6914 9.72556C22.6571 9.76241 22.6088 9.81342 22.5469 9.87595C22.4228 10.0011 22.243 10.1745 22.0088 10.3789C21.5404 10.7876 20.8508 11.3249 19.9472 11.8603C18.1374 12.9328 15.4632 14 12 14C8.53675 14 5.86253 12.9328 4.05271 11.8603C3.14919 11.3249 2.45954 10.7876 1.99119 10.3789C1.75696 10.1745 1.57714 10.0011 1.45311 9.87595C1.39113 9.81342 1.34282 9.76241 1.30857 9.72556C1.29145 9.70713 1.27771 9.6919 1.26756 9.68064C1.26256 9.6751 1.25816 9.67068 1.25486 9.66697C1.2532 9.66509 1.25121 9.66348 1.24998 9.66208L1.249 9.66013C1.24868 9.65976 1.2474 9.65848 1.99998 8.99997L1.24705 9.65818C0.883694 9.24254 0.926255 8.61063 1.34178 8.24704C1.75719 7.88389 2.38826 7.92592 2.75193 8.34079L2.75291 8.34177C2.7564 8.34564 2.76333 8.35337 2.77342 8.36423C2.79358 8.38593 2.8268 8.4211 2.87303 8.46775C2.96572 8.56127 3.11055 8.70079 3.30564 8.87107C3.69666 9.21232 4.28856 9.67521 5.07225 10.1396C6.63743 11.0671 8.96324 12 12 12C15.0367 12 17.3625 11.0671 18.9277 10.1396C19.7114 9.67521 20.3033 9.21232 20.6943 8.87107C20.8894 8.70079 21.0342 8.56127 21.1269 8.46775C21.1732 8.4211 21.2064 8.38593 21.2265 8.36423C21.2366 8.35337 21.2436 8.34564 21.2471 8.34177L21.248 8.34079Z" fill="#EDE8E0"/>
<path d="M3.23728 9.99702C3.59472 9.57604 4.22644 9.52439 4.64744 9.88178C5.06842 10.2392 5.12007 10.8709 4.76268 11.2919L2.76268 13.6474C2.40523 14.0684 1.77352 14.1201 1.35252 13.7626C0.931538 13.4052 0.879875 12.7735 1.23728 12.3525L3.23728 9.99702Z" fill="#EDE8E0"/>
<path d="M19.3564 9.88564C19.7775 9.52825 20.4092 9.57986 20.7666 10.0009L22.7627 12.3524C23.1201 12.7735 23.0684 13.4052 22.6474 13.7626C22.2264 14.12 21.5947 14.0684 21.2373 13.6474L19.2412 11.2958C18.8838 10.8748 18.9354 10.243 19.3564 9.88564Z" fill="#EDE8E0"/>
<path d="M7.96287 12.3711C8.13326 11.8459 8.69735 11.5583 9.22264 11.7285C9.74783 11.8989 10.0355 12.463 9.86521 12.9883L8.95115 15.8086C8.78076 16.3338 8.21667 16.6214 7.69139 16.4512C7.16619 16.2808 6.87856 15.7167 7.04881 15.1914L7.96287 12.3711Z" fill="#EDE8E0"/>
<path d="M14.7461 11.7392C15.2699 11.5646 15.836 11.8473 16.0107 12.3711L16.9482 15.1836C17.1228 15.7074 16.8401 16.2735 16.3164 16.4482C15.7925 16.6228 15.2265 16.3401 15.0517 15.8164L14.1142 13.0039C13.9396 12.48 14.2223 11.914 14.7461 11.7392Z" fill="#EDE8E0"/>
</svg>
