<svg width="24" height="24" viewBox="0 0 24 24" fill="none" xmlns="http://www.w3.org/2000/svg">
<path d="M11 14V9C11 8.44772 11.4477 8 12 8C12.5523 8 13 8.44772 13 9V14C13 14.5523 12.5523 15 12 15C11.4477 15 11 14.5523 11 14Z" fill="#EDE8E0"/>
<path d="M11 18V17.5C11 16.9477 11.4477 16.5 12 16.5C12.5523 16.5 13 16.9477 13 17.5V18C13 18.5523 12.5523 19 12 19C11.4477 19 11 18.5523 11 18Z" fill="#EDE8E0"/>
<path d="M9.45704 2.59862C10.5405 0.467366 13.4594 0.467536 14.543 2.59862L22.6592 18.5625C23.6285 20.4692 22.403 23 20.1162 23H3.88379C1.59712 23 0.37149 20.4692 1.34082 18.5625L9.45704 2.59862ZM12.7598 3.50487C12.4175 2.83174 11.5824 2.83191 11.2402 3.50487L3.12403 19.4687C2.7261 20.2515 3.31519 21 3.88379 21H20.1162C20.6849 21 21.2739 20.2515 20.876 19.4687L12.7598 3.50487Z" fill="#EDE8E0"/>
</svg>
