<svg width="24" height="24" viewBox="0 0 24 24" fill="none" xmlns="http://www.w3.org/2000/svg">
<path d="M21 10.9345C21 9.66905 20.1387 8.56573 18.9111 8.25873C17.8318 7.98889 17.0043 7.12111 16.7861 6.03021L16.3408 3.80365C16.2472 3.33631 15.8369 2.99994 15.3603 2.99994H8.63962C8.16301 2.99994 7.75271 3.33633 7.65915 3.80365L7.21384 6.03021C6.99562 7.12112 6.16814 7.9889 5.08884 8.25873C3.86122 8.56571 2.99997 9.66902 2.99997 10.9345V17.9999C2.99997 19.6568 4.34312 20.9999 5.99997 20.9999H18C19.6568 20.9999 21 19.6568 21 17.9999V10.9345ZM23 17.9999C23 20.7613 20.7614 22.9999 18 22.9999H5.99997C3.23854 22.9999 0.999969 20.7613 0.999969 17.9999V10.9345C0.999969 8.75138 2.48565 6.84795 4.60349 6.3183C4.93301 6.23592 5.18629 5.9707 5.2529 5.63763L5.69821 3.41205C5.97867 2.00978 7.20958 0.999939 8.63962 0.999939H15.3603C16.7904 0.999939 18.0212 2.00981 18.3017 3.41205L18.747 5.63763C18.8137 5.97071 19.067 6.23592 19.3965 6.3183C21.5143 6.84797 23 8.75138 23 10.9345V17.9999Z" fill="#EDE8E0"/>
<path d="M15 13.9999C15 12.3431 13.6568 10.9999 12 10.9999C10.3431 10.9999 8.99997 12.3431 8.99997 13.9999C8.99997 15.6568 10.3431 16.9999 12 16.9999C13.6568 16.9999 15 15.6568 15 13.9999ZM17 13.9999C17 16.7614 14.7614 18.9999 12 18.9999C9.23855 18.9999 6.99997 16.7614 6.99997 13.9999C6.99997 11.2385 9.23855 8.99994 12 8.99994C14.7614 8.99994 17 11.2385 17 13.9999Z" fill="#EDE8E0"/>
<path d="M13 4.99994C13.5523 4.99994 14 5.44765 14 5.99994C14 6.55222 13.5523 6.99994 13 6.99994H11C10.4477 6.99994 9.99997 6.55222 9.99997 5.99994C9.99997 5.44765 10.4477 4.99994 11 4.99994H13Z" fill="#EDE8E0"/>
</svg>
