<svg width="24" height="24" viewBox="0 0 24 24" fill="none" xmlns="http://www.w3.org/2000/svg">
<path d="M11.6133 3.99994C14.0206 4.00007 16.1759 5.14989 17.8633 6.46088C19.5619 7.78066 20.8904 9.34468 21.664 10.3544C22.4128 11.3322 22.4128 12.6677 21.664 13.6454C20.8904 14.6552 19.5619 16.2192 17.8633 17.539C16.1759 18.85 14.0206 19.9998 11.6133 19.9999C9.20581 19.9999 7.04976 18.8501 5.36229 17.539C3.66369 16.2192 2.33508 14.6552 1.5615 13.6454C0.812799 12.6677 0.812783 11.3322 1.5615 10.3544C2.33509 9.34469 3.66369 7.78064 5.36229 6.46088C7.04976 5.14982 9.20581 3.99994 11.6133 3.99994ZM11.6133 5.99994C9.83899 5.99994 8.11218 6.85722 6.58982 8.03998C5.07872 9.21401 3.86891 10.6311 3.14939 11.5703C2.95006 11.8305 2.95005 12.1694 3.14939 12.4296C3.86891 13.3688 5.07872 14.7859 6.58982 15.9599C8.11218 17.1427 9.83898 17.9999 11.6133 17.9999C13.3874 17.9998 15.1135 17.1425 16.6357 15.9599C18.1468 14.7859 19.3566 13.3688 20.0762 12.4296L20.1416 12.329C20.2539 12.1208 20.2539 11.8791 20.1416 11.6708L20.0762 11.5703C19.3566 10.6311 18.1468 9.21398 16.6357 8.03998C15.1135 6.85735 13.3874 6.00007 11.6133 5.99994Z" fill="#EDE8E0"/>
<path d="M13.6128 11.9999C13.6128 10.8954 12.7174 9.99994 11.6128 9.99994C10.5083 9.99994 9.61285 10.8954 9.61285 11.9999C9.61285 13.1045 10.5083 13.9999 11.6128 13.9999C12.7174 13.9999 13.6128 13.1045 13.6128 11.9999ZM15.6128 11.9999C15.6128 14.2091 13.822 15.9999 11.6128 15.9999C9.40371 15.9999 7.61285 14.2091 7.61285 11.9999C7.61285 9.7908 9.40371 7.99994 11.6128 7.99994C13.822 7.99994 15.6128 9.7908 15.6128 11.9999Z" fill="#EDE8E0"/>
</svg>
