<svg width="24" height="24" viewBox="0 0 24 24" fill="none" xmlns="http://www.w3.org/2000/svg">
<path d="M19 14C19 12.5182 18.4287 11.1362 17.5156 9.77051C16.5943 8.39254 15.3846 7.11442 14.1748 5.81152L12 3.46875L9.8252 5.81152C8.61536 7.11441 7.4057 8.39254 6.48438 9.77051C5.57127 11.1362 5 12.5181 5 14C5 17.866 8.134 21 12 21C15.866 21 19 17.866 19 14ZM21 14C21 18.9706 16.9706 23 12 23C7.02944 23 3 18.9706 3 14C3 11.9799 3.78389 10.2109 4.82129 8.65918C5.85053 7.11979 7.18727 5.71351 8.36035 4.4502L11.2676 1.31934L11.3418 1.24707C11.5231 1.08852 11.7568 1 12 1C12.2779 1 12.5432 1.11576 12.7324 1.31934L15.6396 4.4502C16.8127 5.71344 18.1495 7.11892 19.1787 8.6582C20.2162 10.21 21 11.9797 21 14Z" fill="#EDE8E0"/>
</svg>
