<svg width="24" height="24" viewBox="0 0 24 24" fill="none" xmlns="http://www.w3.org/2000/svg">
<path d="M10.293 4.29295C10.6835 3.90243 11.3165 3.90243 11.707 4.29295C12.0976 4.68348 12.0976 5.31649 11.707 5.70702L5.41406 12L11.707 18.293C12.0976 18.6835 12.0976 19.3165 11.707 19.707C11.3165 20.0975 10.6835 20.0975 10.293 19.707L3.29297 12.707C2.90245 12.3165 2.90245 11.6835 3.29297 11.293L10.293 4.29295Z" fill="#EDE8E0"/>
<path d="M20 11C20.5523 11 21 11.4477 21 12C21 12.5523 20.5523 13 20 13H4C3.44772 13 3 12.5523 3 12C3 11.4477 3.44772 11 4 11H20Z" fill="#EDE8E0"/>
</svg>
