<svg width="24" height="24" viewBox="0 0 24 24" fill="none" xmlns="http://www.w3.org/2000/svg">
<path d="M21 7.9502C21 5.77812 19.2186 4 17 4C15.9675 4 14.943 4.57295 14.1025 5.26953C13.6966 5.60604 13.3659 5.94546 13.1367 6.2002C13.0229 6.32676 12.9351 6.43056 12.8779 6.50098C12.8494 6.53614 12.8283 6.56347 12.8154 6.58008C12.8094 6.5879 12.8051 6.59351 12.8027 6.59668L12.8008 6.59863V6.59961H12.7998L12.7256 6.6875C12.5379 6.88556 12.2762 7 12 7C11.7238 7 11.4621 6.88556 11.2744 6.6875L11.2002 6.59961H11.1992V6.59863L11.1973 6.59668C11.1949 6.59351 11.1906 6.5879 11.1846 6.58008C11.1717 6.56347 11.1506 6.53614 11.1221 6.50098C11.0649 6.43056 10.9771 6.32676 10.8633 6.2002C10.6341 5.94546 10.3034 5.60604 9.89746 5.26953C9.05705 4.57295 8.03252 4 7 4C4.78136 4 3 5.77812 3 7.9502C3.00003 8.90879 3.18654 10.5915 4.37988 12.6621C5.57578 14.737 7.81435 17.2554 12 19.8311C16.1856 17.2554 18.4242 14.737 19.6201 12.6621C20.8135 10.5915 21 8.90878 21 7.9502ZM23 7.9502C23 9.19855 22.7492 11.2379 21.3525 13.6611C19.959 16.0789 17.4559 18.8245 13.0361 21.542C12.403 21.9313 11.597 21.9313 10.9639 21.542C6.54406 18.8245 4.04101 16.0789 2.64746 13.6611C1.25077 11.2379 1.00003 9.19854 1 7.9502C1 4.65465 3.6958 2 7 2C8.72884 2 10.2046 2.92709 11.1738 3.73047C11.4914 3.99372 11.7685 4.25691 12 4.49219C12.2315 4.25691 12.5086 3.99372 12.8262 3.73047C13.7954 2.9271 15.2712 2 17 2C20.3042 2 23 4.65465 23 7.9502Z" fill="#EDE8E0"/>
</svg>
